<svg xmlns="http://www.w3.org/2000/svg" viewBox="0 0 554.66016 572.15774"><defs><style>.cls-1{fill:#ffd7d7;}.cls-2{opacity:0.24;}.cls-11,.cls-3,.cls-7{font-size:12px;}.cls-11,.cls-15,.cls-21,.cls-29,.cls-3,.cls-35{font-family:FormaDJRBanner-Regular, Forma DJR Banner;}.cls-3{opacity:0.7;}.cls-4{fill:#ed1c24;}.cls-5{fill:#669c41;}.cls-6{fill:#2b3f1b;}.cls-7{font-family:FormaDJRBanner-Bold, Forma DJR Banner;font-weight:700;}.cls-8{font-size:9px;font-family:FormaDJRBanner-Light, Forma DJR Banner;font-weight:300;}.cls-29,.cls-9{fill:red;}.cls-10,.cls-24{opacity:0.36;}.cls-11,.cls-15,.cls-21{opacity:0.7;}.cls-12{fill:#60161d;}.cls-13{fill:#ffb0b0;}.cls-14{fill:#ff8080;}.cls-15{font-size:11px;}.cls-16{fill:#ff5f5f;}.cls-17{fill:#b2b0ff;}.cls-18{fill:#5b57ff;}.cls-19{fill:#908dff;}.cls-20,.cls-35{fill:#1800ff;}.cls-21{font-size:14px;}.cls-22,.cls-26,.cls-27,.cls-28,.cls-32,.cls-33,.cls-34{fill:none;}.cls-23{fill:#cdccff;}.cls-25{fill:#fff;}.cls-26,.cls-27,.cls-28{stroke:red;}.cls-26,.cls-27,.cls-28,.cls-32,.cls-33,.cls-34{stroke-miterlimit:10;}.cls-27,.cls-33{stroke-dasharray:1.97468 1.97468;}.cls-28,.cls-34{stroke-dasharray:2 2;}.cls-29,.cls-35{font-size:10px;}.cls-30{letter-spacing:-0.0249em;}.cls-31{letter-spacing:-0.00498em;}.cls-32,.cls-33,.cls-34{stroke:#1800ff;}</style></defs><title>final_infographic_broken-parts</title><g id="movies"><g id="sex_education"><path id="sex_education-2" data-name="sex education" class="cls-1" d="M456,325V151.01546Q454.84172,151,453.68343,151a176.00483,176.00483,0,0,0-101.059,31.70611Z" transform="translate(-266 -32.25195)"/><path class="cls-2" d="M456,174.18066V151c-36,0-74.86365,10.6488-103,32l13.74146,18.89459C392.1106,184.75446,424.7417,175.5304,456,174.18066Z" transform="translate(-266 -32.25195)"/><text class="cls-3" transform="matrix(0.91045, -0.41363, 0.41363, 0.91045, 109.12305, 154.96143)">S</text><text class="cls-3" transform="translate(115.4209 152.10742) rotate(-22.92148)">e</text><text class="cls-3" transform="translate(120.42188 149.98877) rotate(-21.69432)">x</text><text class="cls-3" transform="matrix(0.93463, -0.35561, 0.35561, 0.93463, 125.38672, 148.02734)"> </text><text class="cls-3" transform="matrix(0.94036, -0.34017, 0.34017, 0.94036, 127.10352, 147.35742)">E</text><text class="cls-3" transform="translate(132.32129 145.46436) rotate(-18.42387)">d</text><text class="cls-3" transform="translate(137.9502 143.58984) rotate(-16.83891)">u</text><text class="cls-3" transform="matrix(0.96509, -0.26194, 0.26194, 0.96509, 143.36035, 141.94971)">c</text><text class="cls-3" transform="translate(148.84277 140.45801) rotate(-13.37346)">a</text><text class="cls-3" transform="translate(154.61035 139.10303) rotate(-11.80803)">t</text><text class="cls-3" transform="translate(157.97461 138.40576) rotate(-10.90003)">i</text><text class="cls-3" transform="translate(159.66309 138.05273) rotate(-9.47177)">o</text><text class="cls-3" transform="translate(165.55273 137.07031) rotate(-7.17373)">n</text><ellipse class="cls-4" cx="398.5837" cy="200.35333" rx="5.81896" ry="4.94365" transform="translate(-312.95972 145.70754) rotate(-23.80962)"/><path class="cls-5" d="M392.76127,196.98906a1.1617,1.1617,0,0,0,1.62533-.21745s.2816.13485.21417.27566-.69944-.11706-1.67394,2.33035c0,0,1.40742-1.676,1.84577-1.64733,0,0,.992.025.87993.77775,0,0-.12984.33492-1.289,1.10552,0,0,2.08462-.30907,2.15108-1.37487a4.871,4.871,0,0,1,.066-.899,3.68718,3.68718,0,0,1,3.10407,1.6657s-.5023-2.48058-1.98731-2.6582a4.73249,4.73249,0,0,1,3.7464-.65365,4.90667,4.90667,0,0,0-3.91551-.40073s.16535-.75778-.79244-.70531a.40853.40853,0,0,1,.1103.54359.61.61,0,0,1-.44979-.89352s-.35268.08159-.60872.67578c0,0-.31372-.19471-.26446-1.01231a1.20949,1.20949,0,0,0-.63873-.06982,4.20233,4.20233,0,0,1,.33092,1.63079,6.776,6.776,0,0,1-1.023-.01133l.52677.39685a1.65168,1.65168,0,0,0-.88758.79882S393.83936,196.95755,392.76127,196.98906Z" transform="translate(-266 -32.25195)"/><path class="cls-6" d="M394.73952,196.38759s.42086-.0396.39206-.436c0,0,.82312,1.26938.518-.08438a6.98636,6.98636,0,0,1-.28556-1.7715c.00629-.11967.24558,1.35274.68,1.541s.1991-.1463.12642-.37723-.13884.14893.36262.42444a1.45048,1.45048,0,0,0,.77843.24095s-.96153-.18938-.84654.66576.20506.46474.20506.46474-.75489-.7189-1.25341-.06059l-.26469.32728S395.47261,196.32711,394.73952,196.38759Z" transform="translate(-266 -32.25195)"/><text class="cls-7" transform="translate(143.62891 167.22998) rotate(-15.27052)">9</text><text class="cls-7" transform="translate(149.95605 165.49756) rotate(-12.82843)">0</text><text class="cls-7" transform="matrix(0.98547, -0.16982, 0.16982, 0.98547, 156.62402, 163.9375)">%</text><text class="cls-8" transform="matrix(0.92017, -0.39153, 0.39153, 0.92017, 142.32914, 194.96868)">4</text><text class="cls-8" transform="translate(146.12625 193.3502) rotate(-21.50368)">0</text><text class="cls-8" transform="translate(150.28627 191.72692) rotate(-20.49401)"> </text><text class="cls-8" transform="matrix(0.94496, -0.32719, 0.32719, 0.94496, 151.3428, 191.29579)">m</text><text class="cls-8" transform="matrix(0.95257, -0.30434, 0.30434, 0.95257, 157.60431, 189.16358)">i</text><text class="cls-8" transform="matrix(0.95454, -0.29811, 0.29811, 0.95454, 158.58225, 188.85027)">l</text><text class="cls-8" transform="matrix(0.95645, -0.2919, 0.2919, 0.95645, 159.55213, 188.54733)">l</text><text class="cls-8" transform="matrix(0.95835, -0.28559, 0.28559, 0.95835, 160.53397, 188.24744)">i</text><text class="cls-8" transform="translate(161.50096 187.9452) rotate(-15.61433)">o</text><text class="cls-8" transform="translate(165.59405 186.80264) rotate(-14.08227)">n</text></g><g id="stranger_things"><path id="stranger_things-2" data-name="stranger things" class="cls-9" d="M456,603.976V324.56979L291,551.67691A273.712,273.712,0,0,0,452.397,604Q454.19852,604,456,603.976Z" transform="translate(-266 -32.25195)"/><path class="cls-10" d="M314.01538,520.28241,291.22327,551.738C341.43237,587.23956,398.7605,605.19189,456,604V567.78461c-48.75171-2.20294-97.04419-18.20917-140.42151-47.02088Z" transform="translate(-266 -32.25195)"/><text class="cls-11" transform="matrix(-0.98613, -0.16594, 0.16594, -0.98613, 140.51964, 547.91509)">S</text><text class="cls-11" transform="translate(133.77354 546.753) rotate(-168.6295)">t</text><text class="cls-11" transform="translate(130.40683 546.07815) rotate(-167.39186)">r</text><text class="cls-11" transform="translate(127.1192 545.36349) rotate(-165.92703)">a</text><text class="cls-11" transform="matrix(-0.96147, -0.2749, 0.2749, -0.96147, 121.37164, 543.92101)">n</text><text class="cls-11" transform="translate(115.95734 542.37628) rotate(-162.19483)">g</text><text class="cls-11" transform="matrix(-0.94156, -0.33684, 0.33684, -0.94156, 110.33811, 540.5722)">e</text><text class="cls-11" transform="matrix(-0.93217, -0.36201, 0.36201, -0.93217, 104.79723, 538.57674)">r</text><text class="cls-11" transform="translate(101.35997 537.23528) rotate(-157.92709)"> </text><text class="cls-11" transform="translate(99.63583 536.53594) rotate(-157.33688)"> </text><text class="cls-11" transform="matrix(-0.91465, -0.40425, 0.40425, -0.91465, 98.12717, 535.9327)">T</text><text class="cls-11" transform="translate(92.68566 533.5259) rotate(-154.33061)">h</text><text class="cls-11" transform="matrix(-0.89228, -0.45148, 0.45148, -0.89228, 87.61412, 531.06794)">i</text><text class="cls-11" transform="matrix(-0.88276, -0.46982, 0.46982, -0.88276, 86.04683, 530.29674)">n</text><text class="cls-11" transform="matrix(-0.86729, -0.49779, 0.49779, -0.86729, 81.08528, 527.66061)">g</text><text class="cls-11" transform="matrix(-0.85103, -0.52512, 0.52512, -0.85103, 75.95165, 524.71094)">s</text><text class="cls-7" transform="translate(122.36052 490.97712) rotate(-156.74055)">9</text><text class="cls-7" transform="matrix(-0.90203, -0.43167, 0.43167, -0.90203, 116.44918, 488.43732)">3</text><text class="cls-7" transform="matrix(-0.87829, -0.47812, 0.47812, -0.87829, 110.78156, 485.77756)">%</text><text class="cls-8" transform="translate(169.89957 400.83164) rotate(-167.23201)">6</text><text class="cls-8" transform="translate(165.70193 399.87956) rotate(-165.69394)">4</text><text class="cls-8" transform="translate(161.6855 398.84234) rotate(-164.74225)"> </text><text class="cls-8" transform="translate(160.5694 398.57271) rotate(-163.34631)">m</text><text class="cls-8" transform="translate(154.25273 396.64953) rotate(-161.97715)">i</text><text class="cls-8" transform="matrix(-0.9489, -0.31557, 0.31557, -0.9489, 153.27723, 396.33146)">l</text><text class="cls-8" transform="translate(152.29448 396.00475) rotate(-161.22638)">l</text><text class="cls-8" transform="matrix(-0.94473, -0.32787, 0.32787, -0.94473, 151.34131, 395.68062)">i</text><text class="cls-8" transform="translate(150.36868 395.35802) rotate(-159.88336)">o</text><text class="cls-8" transform="matrix(-0.92951, -0.3688, 0.3688, -0.92951, 146.36112, 393.88929)">n</text><path class="cls-5" d="M399.5282,534.77254s-.04125-1.18412-1.15632-1.1627c0,0-.063-.30582.09-.3373s.32988.62778,2.86823-.07668c0,0-2.186-.10691-2.42828-.47331,0,0-.58014-.805.08705-1.17115a3.62456,3.62456,0,0,1,1.66.35769s-1.50711-1.473-2.396-.88125-.75582.49126-.75582.49126a3.68717,3.68717,0,0,1-.55127-3.47935s-1.67144,1.90049-.91459,3.19044a4.73248,4.73248,0,0,1-2.78671-2.58785,4.9067,4.9067,0,0,0,2.0494,3.36032s-.70343.32671-.08229,1.05766a.40854.40854,0,0,1,.36614-.41666.61006.61006,0,0,1-.43942.89867,1.054,1.054,0,0,0,.90634.07594s.03472.3676-.64614.82294c0,0,.13819.44423.33078.55085,0,0,.699-1.12273,1.09842-1.25a6.7754,6.7754,0,0,1,.60977.82143l-.00264-.65952a1.65169,1.65169,0,0,0,1.173.22356S398.851,533.93312,399.5282,534.77254Z" transform="translate(-266 -32.25195)"/><path class="cls-6" d="M397.8526,533.56109a.41709.41709,0,0,0-.58434-.04846s.5129-1.42329-.38053-.36143a6.9862,6.9862,0,0,1-1.23791,1.299c-.0991.06738.92863-1.01383.81576-1.47358s-.23693-.07-.37686.12752.20258.02047.11863-.54549a1.45038,1.45038,0,0,0-.279-.76562s.43083.88023,1.04222.27138.246-.44441.246-.44441-.11582,1.036.70994,1.03474l.42073.0128S397.361,533.01392,397.8526,533.56109Z" transform="translate(-266 -32.25195)"/><ellipse class="cls-12" cx="398.68516" cy="528.10109" rx="4.94365" ry="5.81896" transform="translate(-522.43783 588.87862) rotate(-61.03149)"/></g><g id="you"><path id="you-2" data-name="you" class="cls-13" d="M456,325,352.83792,467h-.00514a176.88845,176.88845,0,0,1-65.932-87.0515v-.00511Z" transform="translate(-266 -32.25195)"/><path class="cls-2" d="M309.374,372.542,287,380c12.36279,36.4472,36.57837,66.546,66,87l13.25647-18.93781A175.29574,175.29574,0,0,1,309.374,372.542Z" transform="translate(-266 -32.25195)"/><text class="cls-11" transform="matrix(-0.62552, -0.78021, 0.78021, -0.62552, 62.37402, 390.82617)">Y</text><text class="cls-11" transform="matrix(-0.59485, -0.80384, 0.80384, -0.59485, 59.21289, 386.92188)">o</text><text class="cls-11" transform="matrix(-0.55487, -0.83194, 0.83194, -0.55487, 55.66602, 382.12695)">u</text><text class="cls-7" transform="matrix(-0.56924, -0.82217, 0.82217, -0.56924, 83.47095, 367.50741)">9</text><text class="cls-7" transform="translate(79.80774 362.21821) rotate(-122.38542)">3</text><text class="cls-7" transform="matrix(-0.49084, -0.87125, 0.87125, -0.49084, 76.41477, 356.95663)">%</text><text class="cls-8" transform="matrix(-0.63829, -0.7698, 0.7698, -0.63829, 109.23703, 366.35701)">4</text><text class="cls-8" transform="translate(106.61105 363.19532) rotate(-128.12459)">0</text><text class="cls-8" transform="matrix(-0.60337, -0.79747, 0.79747, -0.60337, 103.85894, 359.66575)"> </text><text class="cls-8" transform="translate(103.14802 358.78086) rotate(-125.71678)">m</text><text class="cls-8" transform="matrix(-0.56411, -0.8257, 0.8257, -0.56411, 99.31926, 353.40008)">i</text><text class="cls-8" transform="matrix(-0.55866, -0.8294, 0.8294, -0.55866, 98.73882, 352.54905)">l</text><text class="cls-8" transform="matrix(-0.55314, -0.83309, 0.83309, -0.55314, 98.15729, 351.68695)">l</text><text class="cls-8" transform="translate(97.60033 350.84682) rotate(-123.21301)">i</text><text class="cls-8" transform="translate(97.03021 350.00231) rotate(-122.23025)">o</text><text class="cls-8" transform="translate(94.76064 346.40065) rotate(-120.69403)">n</text><ellipse class="cls-4" cx="353.28068" cy="414.83936" rx="4.94365" ry="5.81896" transform="translate(-370.56885 87.16781) rotate(-16.75057)"/><path class="cls-5" d="M349.22638,420.20421a1.16168,1.16168,0,0,0-.01607-1.63972s.16845-.2629.2999-.17868-.20213.67976,2.107,1.94764c0,0-1.49034-1.60273-1.408-2.03423,0,0,.14671-.98138.88-.77768,0,0,.31643.17.93873,1.41508,0,0-.05054-2.1068-1.10009-2.30374a4.8695,4.8695,0,0,1-.88409-.176,3.68712,3.68712,0,0,1,2.03453-2.87583s-2.52351.19364-2.88227,1.64556a4.73246,4.73246,0,0,1-.1883-3.79832,4.90668,4.90668,0,0,0-.87888,3.83658s-.7317-.25722-.79734.69976a.40853.40853,0,0,1,.553-.04267.61006.61006,0,0,1-.942.33658s.03763.36.59586.68715c0,0-.2318.28742-1.03715.13805a1.20958,1.20958,0,0,0-.14778.62531,4.20225,4.20225,0,0,1,1.65909-.128,6.776,6.776,0,0,1-.137,1.01382l.45857-.474a1.65164,1.65164,0,0,0,.6837.979S349.3276,419.13042,349.22638,420.20421Z" transform="translate(-266 -32.25195)"/><path class="cls-6" d="M348.87258,418.167a.41709.41709,0,0,0-.38451-.44267s1.36091-.66088-.02009-.52443a6.98623,6.98623,0,0,1-1.79317.06569c-.118-.02095,1.37267-.07748,1.61285-.48542s-.12072-.21557-.35884-.17182.13074.15609.46579-.30771a1.45049,1.45049,0,0,0,.33479-.74292s-.30611.931.55668.92194.48641-.14639.48641-.14639-.80621.66082-.21416,1.23646l.29227.30291S348.90265,417.43208,348.87258,418.167Z" transform="translate(-266 -32.25195)"/></g><g id="money_heist"><path id="la_casa_de_papel" data-name="la casa de papel" class="cls-14" d="M457,324.7571,277.28625,383.14934a188.498,188.498,0,0,1-1.79082-117.36869Z" transform="translate(-266 -32.25195)"/><path class="cls-2" d="M302.5957,275.275,275,266c-11.98914,36.89874-10.51392,81.04962,2,116.999L305,374C296.04163,342.62848,294.3075,307.129,302.5957,275.275Z" transform="translate(-266 -32.25195)"/><text class="cls-15" transform="matrix(-0.14959, -0.98875, 0.98875, -0.14959, 22.33887, 318.29492)">M</text><text class="cls-15" transform="translate(21.14941 310.26855) rotate(-96.33425)">o</text><text class="cls-15" transform="matrix(-0.07865, -0.9969, 0.9969, -0.07865, 20.5459, 304.81738)">n</text><text class="cls-15" transform="matrix(-0.04592, -0.99895, 0.99895, -0.04592, 20.13379, 299.64844)">e</text><text class="cls-15" transform="matrix(-0.01478, -0.99989, 0.99989, -0.01478, 19.89648, 294.51758)">y</text><text class="cls-15" transform="translate(19.84082 289.76221) rotate(-89.6531)"> </text><text class="cls-15" transform="matrix(0.03432, -0.99941, 0.99941, 0.03432, 19.81543, 288.104)">H</text><text class="cls-15" transform="translate(20.05371 281.48193) rotate(-85.58987)">e</text><text class="cls-15" transform="translate(20.49512 276.06152) rotate(-84.10299)">i</text><text class="cls-15" transform="translate(20.63379 274.50049) rotate(-82.66391)">s</text><text class="cls-15" transform="translate(21.26758 269.67188) rotate(-80.89981)">t</text><text class="cls-7" transform="translate(54.09137 296.51024) rotate(-88.15809)">1</text><text class="cls-7" transform="matrix(0.06679, -0.99777, 0.99777, 0.06679, 54.19221, 292.53394)">0</text><text class="cls-7" transform="translate(54.64818 285.68067) rotate(-83.60449)">0</text><text class="cls-7" transform="translate(55.37311 278.84117) rotate(-80.42388)">%</text><text class="cls-8" transform="matrix(-0.04428, -0.99902, 0.99902, -0.04428, 80.32297, 307.72586)">4</text><text class="cls-8" transform="translate(80.13654 303.5109) rotate(-91.01578)">4</text><text class="cls-8" transform="translate(80.07548 299.35457) rotate(-90.06106)"> </text><text class="cls-8" transform="translate(80.04033 298.2129) rotate(-88.66461)">m</text><text class="cls-8" transform="translate(80.22745 291.60716) rotate(-87.28504)">i</text><text class="cls-8" transform="translate(80.27645 290.57524) rotate(-86.90816)">l</text><text class="cls-8" transform="translate(80.3311 289.55715) rotate(-86.53338)">l</text><text class="cls-8" transform="translate(80.39323 288.52902) rotate(-86.15509)">i</text><text class="cls-8" transform="matrix(0.08407, -0.99646, 0.99646, 0.08407, 80.44667, 287.53091)">o</text><text class="cls-8" transform="translate(80.80584 283.2837) rotate(-83.63937)">n</text><ellipse class="cls-4" cx="317.30707" cy="338.94274" rx="4.94365" ry="5.81896" transform="translate(-329.03231 40.40539) rotate(-11.89142)"/><path class="cls-5" d="M312.8129,343.94488a1.16168,1.16168,0,0,0,.12289-1.63519s.19011-.24769.31395-.15264-.259.6602,1.93442,2.11912c0,0-1.34922-1.72321-1.23063-2.14619,0,0,.22931-.96542.9427-.70034,0,0,.30089.19621.81549,1.48951,0,0,.1281-2.10351-.901-2.38864a4.86914,4.86914,0,0,1-.866-.25025,3.68713,3.68713,0,0,1,2.27082-2.69316s-2.53084-.02081-3.0113,1.39551a4.7325,4.7325,0,0,1,.13412-3.80063,4.90667,4.90667,0,0,0-1.2007,3.74835s-.70729-.31828-.85376.6297a.40855.40855,0,0,1,.55466.00433.61006.61006,0,0,1-.96715.25558s.007.36192.5355.73515c0,0-.25531.26675-1.04511.0497,0,0-.24558.39514-.20022.61054a4.20219,4.20219,0,0,1,1.664.013,6.7752,6.7752,0,0,1-.22233.99857l.49707-.43346a1.65167,1.65167,0,0,0,.59832,1.03341S313.00472,342.88353,312.8129,343.94488Z" transform="translate(-266 -32.25195)"/><path class="cls-6" d="M312.63294,341.88506a.41708.41708,0,0,0-.34564-.47364s1.412-.54323.02442-.52425a6.98664,6.98664,0,0,1-1.79229-.08644c-.11579-.03087,1.37429.03907,1.64816-.34707s-.102-.225-.343-.20159.11705.1666.49017-.26715a1.45043,1.45043,0,0,0,.39652-.71189s-.38387.9017.47659.96579.49707-.10468.49707-.10468-.8593.59016-.31814,1.21388l.26557.32658S312.72515,341.15529,312.63294,341.88506Z" transform="translate(-266 -32.25195)"/></g><g id="umbrella_academy"><path id="the_umbrella_academy" data-name="the umbrella academy" class="cls-16" d="M456,325,266,263.26312A196.63051,196.63051,0,0,1,338.21868,162.885Z" transform="translate(-266 -32.25195)"/><path class="cls-2" d="M354.69458,185.60828,338,163c-33.26147,24.16583-60.33643,61.3858-72,100l26.68811,8.89606C304.47791,239.07837,327.06982,207.887,354.69458,185.60828Z" transform="translate(-266 -32.25195)"/><text class="cls-15" transform="translate(19.91406 228.83203) rotate(-71.94729)">T</text><text class="cls-15" transform="translate(21.59961 223.68506) rotate(-68.97755)">h</text><text class="cls-15" transform="translate(23.4375 218.89844) rotate(-66.60423)">e</text><text class="cls-15" transform="translate(25.58008 214.00342) rotate(-65.17253)"> </text><text class="cls-15" transform="translate(26.25684 212.46729) rotate(-63.63017)">U</text><text class="cls-15" transform="matrix(0.48633, -0.87378, 0.87378, 0.48633, 28.9248, 207.02441)">m</text><text class="cls-15" transform="matrix(0.52448, -0.85142, 0.85142, 0.52448, 32.97461, 199.81104)">b</text><text class="cls-15" transform="matrix(0.54871, -0.83601, 0.83601, 0.54871, 35.83203, 195.19727)">r</text><text class="cls-15" transform="translate(37.51074 192.60693) rotate(-55.23957)">e</text><text class="cls-15" transform="translate(40.61914 188.16406) rotate(-53.95656)">l</text><text class="cls-15" transform="translate(41.55957 186.87207) rotate(-53.36955)">l</text><text class="cls-15" transform="matrix(0.61459, -0.78884, 0.78884, 0.61459, 42.4873, 185.58789)">a</text><text class="cls-15" transform="matrix(0.63238, -0.77466, 0.77466, 0.63238, 45.83398, 181.32568)"> </text><text class="cls-15" transform="matrix(0.65189, -0.75831, 0.75831, 0.65189, 46.76953, 180.12549)">A</text><text class="cls-15" transform="matrix(0.67919, -0.73396, 0.73396, 0.67919, 50.88672, 175.34766)">c</text><text class="cls-15" transform="matrix(0.70414, -0.71006, 0.71006, 0.70414, 54.42871, 171.5166)">a</text><text class="cls-15" transform="matrix(0.72867, -0.68487, 0.68487, 0.72867, 58.23145, 167.6792)">d</text><text class="cls-15" transform="translate(62.1709 163.97607) rotate(-41.20749)">e</text><text class="cls-15" transform="translate(66.20508 160.39795) rotate(-38.65098)">m</text><text class="cls-15" transform="translate(72.5498 155.36182) rotate(-36.27781)">y</text><text class="cls-7" transform="translate(74.39836 211.38955) rotate(-53.9619)">7</text><text class="cls-7" transform="translate(77.81751 206.69601) rotate(-51.83532)">7</text><text class="cls-7" transform="matrix(0.65634, -0.75447, 0.75447, 0.65634, 81.21441, 202.28923)">%</text><text class="cls-8" transform="matrix(0.51408, -0.85774, 0.85774, 0.51408, 94.17023, 240.70989)">4</text><text class="cls-8" transform="translate(96.25147 237.23415) rotate(-57.59697)">5</text><text class="cls-8" transform="translate(98.49305 233.72476) rotate(-56.64053)"> </text><text class="cls-8" transform="matrix(0.57011, -0.82157, 0.82157, 0.57011, 99.09945, 232.74378)">m</text><text class="cls-8" transform="matrix(0.58959, -0.80771, 0.80771, 0.58959, 102.88422, 227.34603)">i</text><text class="cls-8" transform="matrix(0.59489, -0.80381, 0.80381, 0.59489, 103.49746, 226.50707)">l</text><text class="cls-8" transform="translate(104.1081 225.68174) rotate(-53.11896)">l</text><text class="cls-8" transform="translate(104.71883 224.86717) rotate(-52.74646)">i</text><text class="cls-8" transform="matrix(0.6188, -0.78555, 0.78555, 0.6188, 105.31938, 224.05412)">o</text><text class="cls-8" transform="matrix(0.63956, -0.76875, 0.76875, 0.63956, 107.9589, 220.70508)">n</text><ellipse class="cls-4" cx="332.15387" cy="250.85093" rx="5.81896" ry="4.94365" transform="translate(-320.05007 373.83717) rotate(-58.95913)"/><path class="cls-5" d="M325.4563,251.45216s1.18484.0016,1.20376-1.11352c0,0,.3079-.05185.33383.10209s-.6393.307-.0271,2.86913c0,0,.18589-2.18066.56082-2.40957,0,0,.82548-.55066,1.16723.12934a3.62439,3.62439,0,0,1-.41748,1.646s1.52656-1.45286.96731-2.36257-.4636-.77309-.4636-.77309a3.68714,3.68714,0,0,1,3.497-.42509s-1.8388-1.73907-3.15528-1.02936a4.73251,4.73251,0,0,1,2.68693-2.69131,4.90668,4.90668,0,0,0-3.43223,1.92655s-.30105-.71479-1.054-.12048a.40853.40853,0,0,1,.40314.381.61.61,0,0,1-.88218-.47164,1.054,1.054,0,0,0-.10867.903s-.36862.0214-.799-.67547c0,0-.44895.122-.56246.31064,0,0,1.09672.73909,1.20944,1.1429a6.77553,6.77553,0,0,1-.84295.57967l.65918.02121a1.65168,1.65168,0,0,0-.26583,1.16416S326.31966,250.80573,325.4563,251.45216Z" transform="translate(-266 -32.25195)"/><path class="cls-6" d="M326.72755,249.82147a.41709.41709,0,0,0,.06956-.58221s1.40382.564.375-.36721a6.9862,6.9862,0,0,1-1.25336-1.28407c-.06375-.10147.97959.96469,1.44311.86851s.07857-.23424-.1138-.38122-.02778.2017.54084.13828a1.45049,1.45049,0,0,0,.77521-.25114s-.89523.39872-.30889,1.03173.43523.26194.43523.26194-1.03112-.15321-1.05974.67206l-.028.42S327.29214,249.35,326.72755,249.82147Z" transform="translate(-266 -32.25195)"/></g></g><g id="series"><g id="perfect_date"><path id="the_perfect_date" data-name="the perfect date" class="cls-17" d="M455.99883,114.78259l.00589-.00192A213.33859,213.33859,0,0,1,579,155L456,325.07465Z" transform="translate(-266 -32.25195)"/><path class="cls-2" d="M560.26,180.6441,579,155c-35.00537-25.43292-81.15039-40.29291-123.59351-39.40912l.01539,32.06873C491.46008,148.83917,529.33276,160.85217,560.26,180.6441Z" transform="translate(-266 -32.25195)"/><text class="cls-11" transform="translate(209.69336 104.30566) rotate(6.73348)">T</text><text class="cls-11" transform="translate(215.58984 105.00439) rotate(8.77094)">h</text><text class="cls-11" transform="translate(221.11719 105.85352) rotate(10.70777)">e</text><text class="cls-11" transform="matrix(0.97832, 0.20712, -0.20712, 0.97832, 226.84375, 106.95752)"> </text><text class="cls-11" transform="translate(228.62012 107.30762) rotate(13.24571)">P</text><text class="cls-11" transform="matrix(0.96555, 0.26022, -0.26022, 0.96555, 234.31641, 108.64502)">e</text><text class="cls-11" transform="translate(240.04199 110.20264) rotate(16.64208)">r</text><text class="cls-11" transform="translate(243.81543 111.33301) rotate(17.84195)">f</text><text class="cls-11" transform="translate(246.74023 112.25293) rotate(19.1945)">e</text><text class="cls-11" transform="translate(252.2959 114.18701) rotate(21.02415)">c</text><text class="cls-11" transform="translate(257.50879 116.20361) rotate(22.43817)">t</text><text class="cls-11" transform="matrix(0.9186, 0.39518, -0.39518, 0.9186, 260.69141, 117.52393)"> </text><text class="cls-11" transform="translate(262.375 118.20898) rotate(24.74264)">D</text><text class="cls-11" transform="translate(269.13281 121.33838) rotate(26.8805)">a</text><text class="cls-11" transform="translate(274.41211 124.03271) rotate(28.37407)">t</text><text class="cls-11" transform="translate(277.19629 125.51416) rotate(29.77676)">e</text><ellipse class="cls-4" cx="488.6281" cy="178.37814" rx="4.94365" ry="5.81896" transform="translate(-117.88052 539.35648) rotate(-69.16491)"/><path class="cls-5" d="M486.84968,171.89307a1.16168,1.16168,0,0,0,1.30919.98741s.10559.29384-.04133.34663-.41538-.57479-2.82853.4817c0,0,2.17909-.20343,2.47081.125,0,0,.68821.71485.07952,1.17168a3.62445,3.62445,0,0,1-1.69394-.11923s1.70035,1.245,2.49657.5334.67872-.59325.67872-.59325a3.68714,3.68714,0,0,1,1.038,3.36636s1.38576-2.11785.454-3.28774a4.73244,4.73244,0,0,1,3.1248,2.16756,4.90667,4.90667,0,0,0-2.5042-3.03658s.65014-.42294-.06817-1.05866a.40854.40854,0,0,1-.30351.46426.61.61,0,0,1,.30786-.95179,1.054,1.054,0,0,0-.908.053s-.08637-.359.52321-.90607c0,0-.19964-.42022-.40538-.49852,0,0-.53308,1.21033-.91053,1.39281a6.77563,6.77563,0,0,1-.71985-.7269l.09592.65251a1.65168,1.65168,0,0,0-1.19284-.05536S487.63885,172.62823,486.84968,171.89307Z" transform="translate(-266 -32.25195)"/><path class="cls-6" d="M488.67982,172.85527a.41708.41708,0,0,0,.58532-.0347s-.30638,1.48154.42783.304a6.986,6.986,0,0,1,1.04168-1.46105c.08857-.08072-.77585,1.135-.59907,1.57416s.24445.03583.355-.17955-.20343.0084-.04026.55679a1.4504,1.4504,0,0,0,.38452.71845s-.551-.81042-1.07014-.1212-.18067.47475-.18067.47475-.03192-1.042-.8492-.92389l-.41831.04685S489.24389,173.32739,488.67982,172.85527Z" transform="translate(-266 -32.25195)"/><text class="cls-7" transform="translate(231.15615 152.34854) rotate(17.64483)">6</text><text class="cls-7" transform="translate(237.34457 154.31334) rotate(20.03043)">9</text><text class="cls-7" transform="translate(243.49309 156.50791) rotate(23.07179)">%</text><text class="cls-8" transform="matrix(0.97774, 0.20982, -0.20982, 0.97774, 209.46828, 184.98176)">4</text><text class="cls-8" transform="translate(213.48627 185.84214) rotate(13.64223)">8</text><text class="cls-8" transform="matrix(0.96751, 0.25283, -0.25283, 0.96751, 217.75938, 186.89363)"> </text><text class="cls-8" transform="translate(218.84397 187.14202) rotate(16.02894)">m</text><text class="cls-8" transform="translate(225.21367 189.00711) rotate(17.41293)">i</text><text class="cls-8" transform="translate(226.18279 189.31133) rotate(17.78028)">l</text><text class="cls-8" transform="translate(227.15736 189.62346) rotate(18.15355)">l</text><text class="cls-8" transform="translate(228.11958 189.93892) rotate(18.525)">i</text><text class="cls-8" transform="matrix(0.94262, 0.33387, -0.33387, 0.94262, 229.09549, 190.25073)">o</text><text class="cls-8" transform="translate(233.12188 191.67904) rotate(21.03606)">n</text></g><g id="murder_mystery"><path id="murder_mystery-2" data-name="murder mystery" class="cls-18" d="M761,226,456,325,643.92993,65.68C700.91992,108.92,739.73,155.89,761,226Z" transform="translate(-266 -32.25195)"/><path class="cls-2" d="M721.81665,238.424,761,226c-22-71-64-122-117-160L619.57471,98.88013C664.48218,133.59143,700.55518,178.55579,721.81665,238.424Z" transform="translate(-266 -32.25195)"/><text class="cls-11" transform="translate(404.61328 94.38379) rotate(48.36933)">M</text><text class="cls-11" transform="translate(410.49902 101.02441) rotate(49.31873)">u</text><text class="cls-11" transform="translate(414.19238 105.32764) rotate(49.96549)">r</text><text class="cls-11" transform="translate(416.38086 107.91943) rotate(50.58728)">d</text><text class="cls-11" transform="translate(420.1543 112.51172) rotate(51.4549)">e</text><text class="cls-11" transform="matrix(0.61282, 0.79022, -0.79022, 0.61282, 423.85645, 117.16943)">r</text><text class="cls-11" transform="matrix(0.60698, 0.79472, -0.79472, 0.60698, 426.10449, 120.07324)"> </text><text class="cls-11" transform="translate(427.25195 121.52832) rotate(53.51332)">M</text><text class="cls-11" transform="translate(432.50781 128.66504) rotate(54.7574)">y</text><text class="cls-11" transform="translate(435.49707 132.89063) rotate(55.74629)">s</text><text class="cls-11" transform="matrix(0.55043, 0.83488, -0.83488, 0.55043, 438.50293, 137.31543)">t</text><text class="cls-11" transform="matrix(0.53693, 0.84363, -0.84363, 0.53693, 440.25391, 139.94727)">e</text><text class="cls-11" transform="translate(443.42773 144.94971) rotate(58.611)">r</text><text class="cls-11" transform="translate(445.5498 148.41748) rotate(59.74969)">y</text><ellipse class="cls-4" cx="643.98838" cy="172.83552" rx="4.94365" ry="5.81896" transform="translate(-265.45603 315.43333) rotate(-30.22566)"/><path class="cls-5" d="M646.68093,166.67361a1.1617,1.1617,0,0,0,.39772,1.59085s-.10254.29491-.25.24364.03817-.70815-2.50281-1.40305c0,0,1.82278,1.21132,1.84327,1.65013,0,0,.086.98855-.67456.96133,0,0-.34733-.0916-1.24263-1.15738,0,0,.54009,2.037,1.60663,1.984a4.866,4.866,0,0,1,.90077-.03486,3.68713,3.68713,0,0,1-1.30839,3.27075s2.40891-.77634,2.41947-2.2719a4.73249,4.73249,0,0,1,1.06821,3.64989,4.90667,4.90667,0,0,0-.03933-3.93577s.77151.07964.61234-.86629a.40854.40854,0,0,1-.52786.17036.61005.61005,0,0,1,.83766-.54683s-.12049-.34135-.73957-.52939c0,0,.15844-.33351.97642-.37592a1.2095,1.2095,0,0,0-.002-.64253s-1.17532.60637-1.58359.51107a6.77624,6.77624,0,0,1-.10306-1.01781l-.33549.56781a1.65165,1.65165,0,0,0-.893-.79274S646.83272,167.74143,646.68093,166.67361Z" transform="translate(-266 -32.25195)"/><path class="cls-6" d="M647.4997,168.57226a.41708.41708,0,0,0,.47708.34088s-1.16945.95981.14174.50532a6.9861,6.9861,0,0,1,1.72849-.48173c.11962-.00712-1.31682.39521-1.45532.84789s.16763.1815.389.08347-.16351-.12132-.38126.40778a1.45052,1.45052,0,0,0-.15246.80048s.08075-.97667-.75619-.76684-.43891.25571-.43891.25571.63-.8305-.07985-1.25233l-.35482-.22647S647.64172,169.294,647.4997,168.57226Z" transform="translate(-266 -32.25195)"/><text class="cls-7" transform="matrix(0.58712, 0.8095, -0.8095, 0.58712, 382.55093, 152.47846)">4</text><text class="cls-7" transform="matrix(0.55302, 0.83317, -0.83317, 0.55302, 386.38411, 157.75948)">5</text><text class="cls-7" transform="translate(389.99835 163.12427) rotate(59.45756)">%</text><text class="cls-8" transform="matrix(0.64541, 0.76384, -0.76384, 0.64541, 271.1214, 217.57822)">7</text><text class="cls-8" transform="matrix(0.62741, 0.77869, -0.77869, 0.62741, 273.25781, 220.09561)">3</text><text class="cls-8" transform="translate(275.94394 223.44895) rotate(52.11936)"> </text><text class="cls-8" transform="translate(276.66953 224.32723) rotate(53.51697)">m</text><text class="cls-8" transform="matrix(0.57495, 0.81819, -0.81819, 0.57495, 280.57614, 229.66695)">i</text><text class="cls-8" transform="matrix(0.56958, 0.82193, -0.82193, 0.56958, 281.16394, 230.50323)">l</text><text class="cls-8" transform="translate(281.75173 231.35111) rotate(55.65941)">l</text><text class="cls-8" transform="translate(282.32642 232.19272) rotate(56.03546)">i</text><text class="cls-8" transform="matrix(0.54437, 0.83885, -0.83885, 0.54437, 282.89901, 233.0162)">o</text><text class="cls-8" transform="translate(285.22724 236.60679) rotate(58.57174)">n</text></g><g id="triple_frontier"><path id="triple_frontier-2" data-name="triple frontier" class="cls-19" d="M688,321.60416c0,26.51277-3.97239,52.59574-12,76.39584L454.00275,325.40058,678,252A241.76893,241.76893,0,0,1,688,321.60416Z" transform="translate(-266 -32.25195)"/><path class="cls-2" d="M678,252l-31.83447,9.9483c9.98388,38.84888,11.58862,80.57575-.16553,124.55634V388l30,10C693,346,691,297,678,252Z" transform="translate(-266 -32.25195)"/><text class="cls-11" transform="translate(400.90918 264.81396) rotate(83.35322)">T</text><text class="cls-11" transform="translate(401.46875 269.61328) rotate(84.14288)">r</text><text class="cls-11" transform="translate(401.85742 273.4668) rotate(84.74772)">i</text><text class="cls-11" transform="translate(402.0332 275.19434) rotate(85.58521)">p</text><text class="cls-11" transform="translate(402.47461 281.11963) rotate(86.44141)">l</text><text class="cls-11" transform="translate(402.59863 282.84863) rotate(87.31961)">e</text><text class="cls-11" transform="matrix(0.03113, 0.99952, -0.99952, 0.03113, 402.85645, 288.68652)"> </text><text class="cls-11" transform="translate(402.92871 290.50439) rotate(89.09381)">F</text><text class="cls-11" transform="translate(403.00684 295.88184) rotate(90.24668)">r</text><text class="cls-11" transform="matrix(-0.0247, 0.99969, -0.99969, -0.0247, 403.00879, 299.25977)">o</text><text class="cls-11" transform="translate(402.85938 305.25391) rotate(93.01367)">n</text><text class="cls-11" transform="translate(402.55469 310.82129) rotate(94.30612)">t</text><text class="cls-11" transform="translate(402.29102 314.25488) rotate(95.08238)">i</text><text class="cls-11" transform="translate(402.16113 315.96973) rotate(96.26781)">e</text><text class="cls-11" transform="translate(401.50391 321.83984) rotate(97.85265)">r</text><ellipse class="cls-4" cx="622.81831" cy="312.25244" rx="4.94365" ry="5.81896" transform="translate(-278.00608 -7.05739) rotate(-2.29532)"/><path class="cls-5" d="M628.08345,308.06947a1.1617,1.1617,0,0,0-.39376,1.59183s-.22873.21253-.335.09816.36542-.60778-1.55409-2.41193c0,0,1.04308,1.924.85564,2.3213,0,0-.387.91369-1.04626.53339,0,0-.264-.24362-.55577-1.60461,0,0-.477,2.05273.4902,2.50542a4.87044,4.87044,0,0,1,.81217.39111,3.68717,3.68717,0,0,1-2.688,2.27693s2.492.44241,3.20179-.874a4.73244,4.73244,0,0,1-.76581,3.72508,4.90669,4.90669,0,0,0,1.80876-3.49574s.64433.43174.94678-.47856a.40854.40854,0,0,1-.54617-.09674.61.61,0,0,1,.99622-.09077,1.05406,1.05406,0,0,0-.40546-.81414s.2962-.22045,1.03877.12522c0,0,.308-.34867.29919-.56862a4.20212,4.20212,0,0,1-1.63852-.29021,6.77618,6.77618,0,0,1,.38569-.94753l-.56238.34453a1.65162,1.65162,0,0,0-.41767-1.11869S627.71739,309.084,628.08345,308.06947Z" transform="translate(-266 -32.25195)"/><path class="cls-6" d="M627.91753,310.13047a.41708.41708,0,0,0,.26183.52464s-1.4828.30024-.11146.51284a6.98666,6.98666,0,0,1,1.7528.384c.109.04974-1.34855-.26763-1.683.06745s.06308.23888.30458.256-.08764-.18379-.52785.18169a1.45053,1.45053,0,0,0-.50965.63583s.52882-.82508-.30891-1.03172-.50756.02035-.50756.02035.94565-.43866.516-1.14386l-.20741-.36628S627.70494,310.83466,627.91753,310.13047Z" transform="translate(-266 -32.25195)"/><text class="cls-7" transform="translate(353.73481 292.28444) rotate(89.98312)">7</text><text class="cls-7" transform="translate(353.74456 297.73591) rotate(92.09402)">2</text><text class="cls-7" transform="matrix(-0.08795, 0.99612, -0.99612, -0.08795, 353.569, 303.85979)">%</text><text class="cls-8" transform="translate(300.0398 281.12905) rotate(85.34019)">5</text><text class="cls-8" transform="translate(300.37589 285.26594) rotate(86.80168)">2</text><text class="cls-8" transform="translate(300.58707 289.24586) rotate(87.72844)"> </text><text class="cls-8" transform="translate(300.66564 290.37559) rotate(89.12047)">m</text><text class="cls-8" transform="matrix(-0.00866, 0.99996, -0.99996, -0.00866, 300.73384, 296.97493)">i</text><text class="cls-8" transform="matrix(-0.01521, 0.99988, -0.99988, -0.01521, 300.72495, 298.00334)">l</text><text class="cls-8" transform="matrix(-0.02186, 0.99976, -0.99976, -0.02186, 300.70826, 299.0449)">l</text><text class="cls-8" transform="translate(300.68728 300.04916) rotate(91.62231)">i</text><text class="cls-8" transform="translate(300.67247 301.06503) rotate(92.60508)">o</text><text class="cls-8" transform="matrix(-0.07219, 0.99739, -0.99739, -0.07219, 300.47831, 305.31626)">n</text></g><g id="bird_box"><path id="bird_box-2" data-name="bird box" class="cls-20" d="M658.81457,604.4097,455.87425,325.09723,787.76448,432.9349A341.887,341.887,0,0,1,658.81457,604.4097Z" transform="translate(-266 -32.25195)"/><path class="cls-2" d="M745.4115,419.11328A341.58783,341.58783,0,0,1,631.71692,566.99005l27.09766,37.41962A341.88611,341.88611,0,0,0,787.7644,432.93488Z" transform="translate(-266 -32.25195)"/><text class="cls-21" transform="matrix(-0.56239, 0.82687, -0.82687, -0.56239, 461.33398, 466.96289)">B</text><text class="cls-21" transform="translate(456.80957 473.57324) rotate(125.11412)">i</text><text class="cls-21" transform="translate(455.63965 475.25098) rotate(125.69768)">r</text><text class="cls-21" transform="translate(453.35547 478.45313) rotate(126.61341)">d</text><text class="cls-21" transform="matrix(-0.6077, 0.79416, -0.79416, -0.6077, 449.19727, 484.02246)"> </text><text class="cls-21" transform="translate(447.88281 485.73828) rotate(127.80683)"> </text><text class="cls-21" transform="translate(446.5918 487.44043) rotate(128.70982)">B</text><text class="cls-21" transform="translate(441.58496 493.68066) rotate(130.04456)">o</text><text class="cls-21" transform="matrix(-0.65781, 0.75319, -0.75319, -0.65781, 437.42285, 498.63574)">x</text><line class="cls-22" x1="532.38" y1="403.99805" x2="511.07" y2="397.07805"/><text class="cls-7" transform="matrix(-0.6363, 0.77144, -0.77144, -0.6363, 405.46784, 446.15669)">6</text><text class="cls-7" transform="translate(401.29102 451.22094) rotate(131.87736)">3</text><text class="cls-7" transform="matrix(-0.7054, 0.7088, -0.7088, -0.7054, 397.15629, 455.90332)">%</text><text class="cls-8" transform="matrix(-0.56426, 0.8256, -0.8256, -0.56426, 287.20121, 346.45626)">8</text><text class="cls-8" transform="translate(284.74901 350.04628) rotate(125.93728)">0</text><text class="cls-8" transform="translate(282.1097 353.66291) rotate(126.95171)"> </text><text class="cls-8" transform="matrix(-0.62037, 0.78431, -0.78431, -0.62037, 281.45594, 354.58873)">m</text><text class="cls-8" transform="matrix(-0.63903, 0.76918, -0.76918, -0.63903, 277.32973, 359.75044)">i</text><text class="cls-8" transform="translate(276.67434 360.53992) rotate(130.09533)">l</text><text class="cls-8" transform="matrix(-0.649, 0.76079, -0.76079, -0.649, 276.02047, 361.31671)">l</text><text class="cls-8" transform="matrix(-0.65398, 0.75651, -0.75651, -0.65398, 275.35644, 362.09619)">i</text><text class="cls-8" transform="translate(274.70698 362.86909) rotate(131.82017)">o</text><text class="cls-8" transform="translate(271.86085 366.04743) rotate(133.35658)">n</text><ellipse class="cls-4" cx="682.51277" cy="472.07658" rx="5.81896" ry="4.94365" transform="translate(-405.07958 322.92305) rotate(-26.57255)"/><path class="cls-5" d="M688.4906,475.15627a1.1617,1.1617,0,0,0-1.613.29555s-.28778-.12113-.22721-.265.70427.08321,1.55967-2.40833c0,0-1.325,1.7419-1.76422,1.73439,0,0-.992.02285-.9164-.73444,0,0,.11355-.34079,1.2342-1.16636,0,0-2.0673.4092-2.08231,1.477a4.86628,4.86628,0,0,1-.0226.90115A3.68713,3.68713,0,0,1,681.478,473.476s.62128,2.45349,2.11312,2.55931a4.73245,4.73245,0,0,1-3.71053.83349,4.9067,4.9067,0,0,0,3.93028.21152s-.12864.76486.82552.66629A.40853.40853,0,0,1,684.5,477.209a.61.61,0,0,1,.49234.87079s.34833-.09849.57543-.70433c0,0,.32275.17937.313.99839a1.20946,1.20946,0,0,0,.64135.03894,4.20216,4.20216,0,0,1-.40914-1.61293,6.77466,6.77466,0,0,1,1.02232-.038l-.54529-.371a1.65167,1.65167,0,0,0,.848-.84069S687.41528,475.23971,688.4906,475.15627Z" transform="translate(-266 -32.25195)"/><path class="cls-6" d="M686.54364,475.8524a.41709.41709,0,0,0-.37059.45439s-.88334-1.22823-.51331.10925a6.98729,6.98729,0,0,1,.37062,1.75568c-.00052.11983-.31051-1.33933-.75345-1.50639s-.19181.15572-.10809.38288.1315-.15545-.38265-.40646a1.45037,1.45037,0,0,0-.78914-.20315s.96954.14281.81347-.7058-.22723-.45431-.22723-.45431.78867.68167,1.25487.0001l.24861-.33966S685.81432,475.94815,686.54364,475.8524Z" transform="translate(-266 -32.25195)"/></g><g id="tall_girl"><path id="tall_girl-2" data-name="tall girl" class="cls-23" d="M561.31468,469.9608A182.08723,182.08723,0,0,1,456,505V325Z" transform="translate(-266 -32.25195)"/><path class="cls-2" d="M546.78223,450.09515a179.75193,179.75193,0,0,1-90.78174,30.02179l.19458,25.21912A179.5493,179.5493,0,0,0,561,470Z" transform="translate(-266 -32.25195)"/><text class="cls-11" transform="translate(254.5726 441.58545) rotate(157.71258)">T</text><text class="cls-11" transform="translate(250.38577 443.3169) rotate(158.84105)">a</text><text class="cls-11" transform="matrix(-0.93875, 0.34461, -0.34461, -0.93875, 244.83439, 445.44674)">l</text><text class="cls-11" transform="translate(243.20621 446.04411) rotate(160.30767)">l</text><text class="cls-11" transform="matrix(-0.94438, 0.32886, -0.32886, -0.94438, 241.55345, 446.63637)"> </text><text class="cls-11" transform="translate(239.94293 447.23614) rotate(162.12094)">G</text><text class="cls-11" transform="translate(232.58837 449.57199) rotate(163.52435)">i</text><text class="cls-11" transform="translate(230.91919 450.07388) rotate(164.39962)">r</text><text class="cls-11" transform="translate(227.20157 451.10331) rotate(165.3051)">l</text><text class="cls-7" transform="translate(236.36808 414.85719) rotate(159.89214)">4</text><text class="cls-7" transform="translate(230.18816 417.12141) rotate(162.31214)">4</text><text class="cls-7" transform="translate(224.38443 419.02784) rotate(165.18788)">%</text><text class="cls-8" transform="translate(235.37155 393.29507) rotate(161.17199)">4</text><text class="cls-8" transform="translate(231.49671 394.60649) rotate(162.30409)">1</text><text class="cls-8" transform="translate(229.35434 395.2878) rotate(162.91577)"> </text><text class="cls-8" transform="translate(228.26131 395.65859) rotate(164.31353)">m</text><text class="cls-8" transform="translate(221.89924 397.41121) rotate(165.68496)">i</text><text class="cls-8" transform="translate(220.89651 397.66732) rotate(166.06101)">l</text><text class="cls-8" transform="translate(219.90252 397.91362) rotate(166.4348)">l</text><text class="cls-8" transform="translate(218.89484 398.15657) rotate(166.81261)">i</text><text class="cls-8" transform="translate(217.94183 398.39439) rotate(167.77858)">o</text><text class="cls-8" transform="matrix(-0.98265, 0.18548, -0.18548, -0.98265, 213.76433, 399.29802)">n</text><ellipse class="cls-4" cx="514.81935" cy="446.97004" rx="5.81896" ry="4.94365" transform="translate(-346.25419 81.98898) rotate(-11.75348)"/><path class="cls-5" d="M519.81066,451.47623a1.16169,1.16169,0,0,0-1.6349-.12682s-.24722-.19071-.15187-.31432.65957.26057,2.12376-1.92932c0,0-1.72645,1.34508-2.14914,1.22547,0,0-.96487-.23164-.69807-.94439,0,0,.19693-.30041,1.49147-.8119,0,0-2.1032-.13316-2.3908.89525a4.86878,4.86878,0,0,1-.25234.8654,3.68715,3.68715,0,0,1-2.68768-2.2773s-.0269,2.53078,1.38825,3.01465a4.7325,4.7325,0,0,1-3.80029-.14327,4.90666,4.90666,0,0,0,3.74545,1.20972s-.32.70652.62764.85527a.40853.40853,0,0,1,.00567-.55464.61.61,0,0,1,.25324.96776s.36194-.00612.73644-.53373c0,0,.26614.256.04718,1.04522,0,0,.39455.24653.61006.20169a4.20219,4.20219,0,0,1,.017-1.66393,6.77557,6.77557,0,0,1,.998.22474l-.43226-.49812a1.65167,1.65167,0,0,0,1.03485-.59582S518.74977,451.28186,519.81066,451.47623Z" transform="translate(-266 -32.25195)"/><path class="cls-6" d="M517.75041,451.65124a.41707.41707,0,0,0-.47447.34449s-.53983-1.41331-.52419-.02567a6.98631,6.98631,0,0,1-.09076,1.79207c-.03114.11571.04239-1.3742-.34309-1.649s-.22526.10148-.20242.3425.16688-.11665-.266-.49082a1.45055,1.45055,0,0,0-.71093-.39823s.90077.386.96693-.47426-.10348-.49731-.10348-.49731.58809.86071,1.21311.32105l.32722-.26478S517.02086,451.55726,517.75041,451.65124Z" transform="translate(-266 -32.25195)"/></g></g><g id="black_elipse_views"><g id="black_elipse_views-2" data-name="black_elipse_views" class="cls-24"><circle cx="191" cy="291.74805" r="121.62237"/></g></g><g id="middle_circle"><circle id="middle_circle_white" class="cls-25" cx="190" cy="292.74805" r="103.23759"/></g><g id="movies-tag"><line class="cls-26" x1="15" y1="163.74805" x2="15" y2="162.74805"/><line class="cls-27" x1="15" y1="160.77336" x2="15" y2="7.73539"/><polyline class="cls-26" points="15 6.748 15 5.748 16 5.748"/><line class="cls-28" x1="18" y1="5.74805" x2="77" y2="5.74805"/><line class="cls-26" x1="78" y1="5.74805" x2="79" y2="5.74805"/><text class="cls-29" transform="translate(83.82031 8.5)">m<tspan class="cls-30" x="7.60938" y="0">o</tspan><tspan x="12.41016" y="0">vi</tspan><tspan class="cls-31" x="18.50977" y="0">e</tspan><tspan x="23.42969" y="0">s</tspan></text></g><g id="series-tag"><line class="cls-32" x1="543" y1="272.74805" x2="543" y2="271.74805"/><line class="cls-33" x1="543" y1="269.77338" x2="543" y2="116.73538"/><polyline class="cls-32" points="543 115.748 543 114.748 542 114.748"/><line class="cls-34" x1="540" y1="114.74805" x2="481" y2="114.74805"/><line class="cls-32" x1="480" y1="114.74805" x2="479" y2="114.74805"/><text class="cls-35" transform="translate(530.82031 285.5)">seri<tspan class="cls-31" x="14.2998" y="0">e</tspan><tspan x="19.21973" y="0">s</tspan></text></g></svg>