<svg xmlns="http://www.w3.org/2000/svg" viewBox="0 0 886.66016 720"><defs><style>.cls-1{fill:#908dff;}.cls-2{opacity:0.24;}.cls-3{fill:#5b57ff;}.cls-4{fill:#cdccff;}.cls-5{fill:#ffd7d7;}.cls-6{fill:#ffb0b0;}.cls-7{fill:#ff8080;}.cls-8{fill:#ff5f5f;}.cls-58,.cls-9{fill:red;}.cls-10,.cls-64{fill:#1800ff;}.cls-11{fill:#b2b0ff;}.cls-12,.cls-21{opacity:0.36;}.cls-13,.cls-14,.cls-16{opacity:0.7;}.cls-13,.cls-15,.cls-23{font-size:12px;}.cls-13,.cls-14,.cls-15,.cls-16,.cls-58,.cls-64{font-family:FormaDJRBanner-Regular, Forma DJR Banner;}.cls-14{font-size:14px;}.cls-15{opacity:0.7;}.cls-16{font-size:11px;}.cls-17{fill:#ed1c24;}.cls-18{fill:#669c41;}.cls-19{fill:#2b3f1b;}.cls-20,.cls-55,.cls-56,.cls-57,.cls-61,.cls-62,.cls-63{fill:none;}.cls-22{fill:#fff;}.cls-23{font-family:FormaDJRBanner-Bold, Forma DJR Banner;}.cls-23,.cls-26,.cls-29{font-weight:700;}.cls-24{font-size:9px;font-family:FormaDJRBanner-Light, Forma DJR Banner;font-weight:300;}.cls-25{fill:#60161d;}.cls-26{font-size:60px;}.cls-26,.cls-29{font-family:DINCondensed-Bold, DIN Condensed;}.cls-27{letter-spacing:-0.055em;}.cls-28{letter-spacing:0.00002em;}.cls-29{font-size:100px;}.cls-30{letter-spacing:-0.03em;}.cls-31{fill:#ed2517;}.cls-32,.cls-58,.cls-64{font-size:10px;}.cls-32{font-family:FormaDJRBanner-ExtraLight, Forma DJR Banner;font-weight:200;}.cls-33{letter-spacing:-0.02998em;}.cls-34{letter-spacing:-0.05em;}.cls-35{letter-spacing:-0.05498em;}.cls-36{letter-spacing:0.00488em;}.cls-37{letter-spacing:-0.0999em;}.cls-38{letter-spacing:-0.00996em;}.cls-39{letter-spacing:0.00996em;}.cls-40{letter-spacing:-0.02002em;}.cls-41{letter-spacing:-0.05508em;}.cls-42{letter-spacing:0.00498em;}.cls-43{letter-spacing:-0.03008em;}.cls-44{letter-spacing:0.0001em;}.cls-45{letter-spacing:-0.00986em;}.cls-46{letter-spacing:-0.06006em;}.cls-47{letter-spacing:-0.01504em;}.cls-48{letter-spacing:-0.01992em;}.cls-49{letter-spacing:-0.01006em;}.cls-50{letter-spacing:-0.07002em;}.cls-51{letter-spacing:-0.02988em;}.cls-52{letter-spacing:-0.02012em;}.cls-53{letter-spacing:-0.01494em;}.cls-54{letter-spacing:-0.00508em;}.cls-55,.cls-56,.cls-57{stroke:red;}.cls-55,.cls-56,.cls-57,.cls-61,.cls-62,.cls-63{stroke-miterlimit:10;}.cls-56,.cls-62{stroke-dasharray:1.97468 1.97468;}.cls-57,.cls-63{stroke-dasharray:2 2;}.cls-59{letter-spacing:-0.0249em;}.cls-60{letter-spacing:-0.00498em;}.cls-61,.cls-62,.cls-63{stroke:#1800ff;}</style></defs><title>final_infographic</title><g id="Layer_1" data-name="Layer 1"><path id="triple_frontier" data-name="triple frontier" class="cls-1" d="M797,321.60416c0,26.51277-3.97239,52.59574-12,76.39584L563.00275,325.40058,787,252A241.76893,241.76893,0,0,1,797,321.60416Z" transform="translate(-43 35)"/><path class="cls-2" d="M787,252l-31.83447,9.9483c9.98388,38.84888,11.58862,80.57575-.16553,124.55634V388l30,10C802,346,800,297,787,252Z" transform="translate(-43 35)"/><path id="murder_mystery" data-name="murder mystery" class="cls-3" d="M870,226,565,325,752.92993,65.68C809.91992,108.92,848.73,155.89,870,226Z" transform="translate(-43 35)"/><path id="tall_girl" data-name="tall girl" class="cls-4" d="M670.31468,469.9608A182.08723,182.08723,0,0,1,565,505V325Z" transform="translate(-43 35)"/><path id="sex_education" data-name="sex education" class="cls-5" d="M565,325V151.01546Q563.84172,151,562.68343,151a176.00483,176.00483,0,0,0-101.059,31.70611Z" transform="translate(-43 35)"/><path id="you" class="cls-6" d="M565,325,461.83792,467h-.00514a176.88845,176.88845,0,0,1-65.932-87.0515v-.00511Z" transform="translate(-43 35)"/><path id="la_casa_de_papel" data-name="la casa de papel" class="cls-7" d="M566,324.7571,386.28625,383.14934a188.498,188.498,0,0,1-1.79082-117.36869Z" transform="translate(-43 35)"/><path id="the_umbrella_academy" data-name="the umbrella academy" class="cls-8" d="M565,325,375,263.26312A196.63051,196.63051,0,0,1,447.21868,162.885Z" transform="translate(-43 35)"/><path id="stranger_things" data-name="stranger things" class="cls-9" d="M565,603.976V324.56979L400,551.67691A273.712,273.712,0,0,0,561.397,604Q563.19852,604,565,603.976Z" transform="translate(-43 35)"/><path id="bird_box" data-name="bird box" class="cls-10" d="M767.81457,604.4097,564.87425,325.09723,896.76448,432.9349A341.887,341.887,0,0,1,767.81457,604.4097Z" transform="translate(-43 35)"/><path id="the_perfect_date" data-name="the perfect date" class="cls-11" d="M564.99883,114.78259l.00589-.00192A213.33859,213.33859,0,0,1,688,155L565,325.07465Z" transform="translate(-43 35)"/><path class="cls-12" d="M423.01538,520.28241,400.22327,551.738C450.43237,587.23956,507.7605,605.19189,565,604V567.78461c-48.75171-2.20294-97.04419-18.20917-140.42151-47.02088Z" transform="translate(-43 35)"/><path class="cls-2" d="M655.78223,450.09515a179.75193,179.75193,0,0,1-90.78174,30.02179l.19458,25.21912A179.5493,179.5493,0,0,0,670,470Z" transform="translate(-43 35)"/><path class="cls-2" d="M854.4115,419.11328A341.58783,341.58783,0,0,1,740.71692,566.99005l27.09766,37.41962A341.88611,341.88611,0,0,0,896.7644,432.93488Z" transform="translate(-43 35)"/><path class="cls-2" d="M830.81665,238.424,870,226c-22-71-64-122-117-160L728.57471,98.88013C773.48218,133.59143,809.55518,178.55579,830.81665,238.424Z" transform="translate(-43 35)"/><path class="cls-2" d="M669.26,180.6441,688,155c-35.00537-25.43292-81.15039-40.29291-123.59351-39.40912l.01539,32.06873C600.46008,148.83917,638.33276,160.85217,669.26,180.6441Z" transform="translate(-43 35)"/><path class="cls-2" d="M565,174.18066V151c-36,0-74.86365,10.6488-103,32l13.74146,18.89459C501.1106,184.75446,533.7417,175.5304,565,174.18066Z" transform="translate(-43 35)"/><path class="cls-2" d="M463.69458,185.60828,447,163c-33.26147,24.16583-60.33643,61.3858-72,100l26.68811,8.89606C413.47791,239.07837,436.06982,207.887,463.69458,185.60828Z" transform="translate(-43 35)"/><path class="cls-2" d="M411.5957,275.275,384,266c-11.98914,36.89874-10.51392,81.04962,2,116.999L414,374C405.04163,342.62848,403.3075,307.129,411.5957,275.275Z" transform="translate(-43 35)"/><path class="cls-2" d="M418.374,372.542,396,380c12.36279,36.4472,36.57837,66.546,66,87l13.25647-18.93781A175.29574,175.29574,0,0,1,418.374,372.542Z" transform="translate(-43 35)"/><text class="cls-13" transform="translate(541.69336 171.55762) rotate(6.73348)">T</text><text class="cls-13" transform="translate(547.58984 172.25635) rotate(8.77094)">h</text><text class="cls-13" transform="translate(553.11719 173.10547) rotate(10.70777)">e</text><text class="cls-13" transform="matrix(0.97832, 0.20712, -0.20712, 0.97832, 558.84375, 174.20947)"> </text><text class="cls-13" transform="translate(560.62012 174.55957) rotate(13.24571)">P</text><text class="cls-13" transform="matrix(0.96555, 0.26022, -0.26022, 0.96555, 566.31641, 175.89697)">e</text><text class="cls-13" transform="translate(572.04199 177.45459) rotate(16.64208)">r</text><text class="cls-13" transform="translate(575.81543 178.58496) rotate(17.84195)">f</text><text class="cls-13" transform="translate(578.74023 179.50488) rotate(19.1945)">e</text><text class="cls-13" transform="translate(584.2959 181.43896) rotate(21.02415)">c</text><text class="cls-13" transform="translate(589.50879 183.45557) rotate(22.43817)">t</text><text class="cls-13" transform="matrix(0.9186, 0.39518, -0.39518, 0.9186, 592.69141, 184.77588)"> </text><text class="cls-13" transform="translate(594.375 185.46094) rotate(24.74264)">D</text><text class="cls-13" transform="translate(601.13281 188.59033) rotate(26.8805)">a</text><text class="cls-13" transform="translate(606.41211 191.28467) rotate(28.37407)">t</text><text class="cls-13" transform="translate(609.19629 192.76611) rotate(29.77676)">e</text><text class="cls-13" transform="translate(736.61328 161.63574) rotate(48.36933)">M</text><text class="cls-13" transform="translate(742.49902 168.27637) rotate(49.31873)">u</text><text class="cls-13" transform="translate(746.19238 172.57959) rotate(49.96549)">r</text><text class="cls-13" transform="translate(748.38086 175.17139) rotate(50.58728)">d</text><text class="cls-13" transform="translate(752.1543 179.76367) rotate(51.4549)">e</text><text class="cls-13" transform="matrix(0.61282, 0.79022, -0.79022, 0.61282, 755.85645, 184.42139)">r</text><text class="cls-13" transform="matrix(0.60698, 0.79472, -0.79472, 0.60698, 758.10449, 187.3252)"> </text><text class="cls-13" transform="translate(759.25195 188.78027) rotate(53.51332)">M</text><text class="cls-13" transform="translate(764.50781 195.91699) rotate(54.7574)">y</text><text class="cls-13" transform="translate(767.49707 200.14258) rotate(55.74629)">s</text><text class="cls-13" transform="matrix(0.55043, 0.83488, -0.83488, 0.55043, 770.50293, 204.56738)">t</text><text class="cls-13" transform="matrix(0.53693, 0.84363, -0.84363, 0.53693, 772.25391, 207.19922)">e</text><text class="cls-13" transform="translate(775.42773 212.20166) rotate(58.611)">r</text><text class="cls-13" transform="translate(777.5498 215.66943) rotate(59.74969)">y</text><text class="cls-13" transform="translate(732.90918 332.06592) rotate(83.35322)">T</text><text class="cls-13" transform="translate(733.46875 336.86523) rotate(84.14288)">r</text><text class="cls-13" transform="translate(733.85742 340.71875) rotate(84.74772)">i</text><text class="cls-13" transform="translate(734.0332 342.44629) rotate(85.58521)">p</text><text class="cls-13" transform="translate(734.47461 348.37158) rotate(86.44141)">l</text><text class="cls-13" transform="translate(734.59863 350.10059) rotate(87.31961)">e</text><text class="cls-13" transform="matrix(0.03113, 0.99952, -0.99952, 0.03113, 734.85645, 355.93848)"> </text><text class="cls-13" transform="translate(734.92871 357.75635) rotate(89.09381)">F</text><text class="cls-13" transform="translate(735.00684 363.13379) rotate(90.24668)">r</text><text class="cls-13" transform="matrix(-0.0247, 0.99969, -0.99969, -0.0247, 735.00879, 366.51172)">o</text><text class="cls-13" transform="translate(734.85938 372.50586) rotate(93.01367)">n</text><text class="cls-13" transform="translate(734.55469 378.07324) rotate(94.30612)">t</text><text class="cls-13" transform="translate(734.29102 381.50684) rotate(95.08238)">i</text><text class="cls-13" transform="translate(734.16113 383.22168) rotate(96.26781)">e</text><text class="cls-13" transform="translate(733.50391 389.0918) rotate(97.85265)">r</text><text class="cls-14" transform="matrix(-0.56239, 0.82687, -0.82687, -0.56239, 793.33398, 534.21484)">B</text><text class="cls-14" transform="translate(788.80957 540.8252) rotate(125.11412)">i</text><text class="cls-14" transform="translate(787.63965 542.50293) rotate(125.69768)">r</text><text class="cls-14" transform="translate(785.35547 545.70508) rotate(126.61341)">d</text><text class="cls-14" transform="matrix(-0.6077, 0.79416, -0.79416, -0.6077, 781.19727, 551.27441)"> </text><text class="cls-14" transform="translate(779.88281 552.99023) rotate(127.80683)"> </text><text class="cls-14" transform="translate(778.5918 554.69238) rotate(128.70982)">B</text><text class="cls-14" transform="translate(773.58496 560.93262) rotate(130.04456)">o</text><text class="cls-14" transform="matrix(-0.65781, 0.75319, -0.75319, -0.65781, 769.42285, 565.8877)">x</text><text class="cls-15" transform="matrix(0.91045, -0.41363, 0.41363, 0.91045, 441.12305, 222.21338)">S</text><text class="cls-15" transform="translate(447.4209 219.35938) rotate(-22.92148)">e</text><text class="cls-15" transform="translate(452.42188 217.24072) rotate(-21.69432)">x</text><text class="cls-15" transform="matrix(0.93463, -0.35561, 0.35561, 0.93463, 457.38672, 215.2793)"> </text><text class="cls-15" transform="matrix(0.94036, -0.34017, 0.34017, 0.94036, 459.10352, 214.60938)">E</text><text class="cls-15" transform="translate(464.32129 212.71631) rotate(-18.42387)">d</text><text class="cls-15" transform="translate(469.9502 210.8418) rotate(-16.83891)">u</text><text class="cls-15" transform="matrix(0.96509, -0.26194, 0.26194, 0.96509, 475.36035, 209.20166)">c</text><text class="cls-15" transform="translate(480.84277 207.70996) rotate(-13.37346)">a</text><text class="cls-15" transform="translate(486.61035 206.35498) rotate(-11.80803)">t</text><text class="cls-15" transform="translate(489.97461 205.65771) rotate(-10.90003)">i</text><text class="cls-15" transform="translate(491.66309 205.30469) rotate(-9.47177)">o</text><text class="cls-15" transform="translate(497.55273 204.32227) rotate(-7.17373)">n</text><text class="cls-13" transform="translate(586.5726 508.83741) rotate(157.71258)">T</text><text class="cls-13" transform="translate(582.38577 510.56885) rotate(158.84105)">a</text><text class="cls-13" transform="matrix(-0.93875, 0.34461, -0.34461, -0.93875, 576.83439, 512.69869)">l</text><text class="cls-13" transform="translate(575.20621 513.29607) rotate(160.30767)">l</text><text class="cls-13" transform="matrix(-0.94438, 0.32886, -0.32886, -0.94438, 573.55345, 513.88832)"> </text><text class="cls-13" transform="translate(571.94293 514.4881) rotate(162.12094)">G</text><text class="cls-13" transform="translate(564.58837 516.82394) rotate(163.52435)">i</text><text class="cls-13" transform="translate(562.91919 517.32583) rotate(164.39962)">r</text><text class="cls-13" transform="translate(559.20157 518.35527) rotate(165.3051)">l</text><text class="cls-13" transform="matrix(-0.98613, -0.16594, 0.16594, -0.98613, 472.51964, 615.16705)">S</text><text class="cls-13" transform="translate(465.77354 614.00495) rotate(-168.6295)">t</text><text class="cls-13" transform="translate(462.40683 613.33011) rotate(-167.39186)">r</text><text class="cls-13" transform="translate(459.1192 612.61545) rotate(-165.92703)">a</text><text class="cls-13" transform="matrix(-0.96147, -0.2749, 0.2749, -0.96147, 453.37164, 611.17296)">n</text><text class="cls-13" transform="translate(447.95734 609.62823) rotate(-162.19483)">g</text><text class="cls-13" transform="matrix(-0.94156, -0.33684, 0.33684, -0.94156, 442.33811, 607.82415)">e</text><text class="cls-13" transform="matrix(-0.93217, -0.36201, 0.36201, -0.93217, 436.79723, 605.82869)">r</text><text class="cls-13" transform="translate(433.35997 604.48723) rotate(-157.92709)"> </text><text class="cls-13" transform="translate(431.63583 603.78789) rotate(-157.33688)"> </text><text class="cls-13" transform="matrix(-0.91465, -0.40425, 0.40425, -0.91465, 430.12717, 603.18465)">T</text><text class="cls-13" transform="translate(424.68566 600.77785) rotate(-154.33061)">h</text><text class="cls-13" transform="matrix(-0.89228, -0.45148, 0.45148, -0.89228, 419.61412, 598.31989)">i</text><text class="cls-13" transform="matrix(-0.88276, -0.46982, 0.46982, -0.88276, 418.04683, 597.54869)">n</text><text class="cls-13" transform="matrix(-0.86729, -0.49779, 0.49779, -0.86729, 413.08528, 594.91256)">g</text><text class="cls-13" transform="matrix(-0.85103, -0.52512, 0.52512, -0.85103, 407.95165, 591.96289)">s</text><text class="cls-13" transform="matrix(-0.62552, -0.78021, 0.78021, -0.62552, 394.37402, 458.07813)">Y</text><text class="cls-13" transform="matrix(-0.59485, -0.80384, 0.80384, -0.59485, 391.21289, 454.17383)">o</text><text class="cls-13" transform="matrix(-0.55487, -0.83194, 0.83194, -0.55487, 387.66602, 449.37891)">u</text><text class="cls-16" transform="translate(351.91406 296.08398) rotate(-71.94729)">T</text><text class="cls-16" transform="translate(353.59961 290.93701) rotate(-68.97755)">h</text><text class="cls-16" transform="translate(355.4375 286.15039) rotate(-66.60423)">e</text><text class="cls-16" transform="translate(357.58008 281.25537) rotate(-65.17253)"> </text><text class="cls-16" transform="translate(358.25684 279.71924) rotate(-63.63017)">U</text><text class="cls-16" transform="matrix(0.48633, -0.87378, 0.87378, 0.48633, 360.9248, 274.27637)">m</text><text class="cls-16" transform="matrix(0.52448, -0.85142, 0.85142, 0.52448, 364.97461, 267.06299)">b</text><text class="cls-16" transform="matrix(0.54871, -0.83601, 0.83601, 0.54871, 367.83203, 262.44922)">r</text><text class="cls-16" transform="translate(369.51074 259.85889) rotate(-55.23957)">e</text><text class="cls-16" transform="translate(372.61914 255.41602) rotate(-53.95656)">l</text><text class="cls-16" transform="translate(373.55957 254.12402) rotate(-53.36955)">l</text><text class="cls-16" transform="matrix(0.61459, -0.78884, 0.78884, 0.61459, 374.4873, 252.83984)">a</text><text class="cls-16" transform="matrix(0.63238, -0.77466, 0.77466, 0.63238, 377.83398, 248.57764)"> </text><text class="cls-16" transform="matrix(0.65189, -0.75831, 0.75831, 0.65189, 378.76953, 247.37744)">A</text><text class="cls-16" transform="matrix(0.67919, -0.73396, 0.73396, 0.67919, 382.88672, 242.59961)">c</text><text class="cls-16" transform="matrix(0.70414, -0.71006, 0.71006, 0.70414, 386.42871, 238.76855)">a</text><text class="cls-16" transform="matrix(0.72867, -0.68487, 0.68487, 0.72867, 390.23145, 234.93115)">d</text><text class="cls-16" transform="translate(394.1709 231.22803) rotate(-41.20749)">e</text><text class="cls-16" transform="translate(398.20508 227.6499) rotate(-38.65098)">m</text><text class="cls-16" transform="translate(404.5498 222.61377) rotate(-36.27781)">y</text><text class="cls-16" transform="matrix(-0.14959, -0.98875, 0.98875, -0.14959, 354.33887, 385.54688)">M</text><text class="cls-16" transform="translate(353.14941 377.52051) rotate(-96.33425)">o</text><text class="cls-16" transform="matrix(-0.07865, -0.9969, 0.9969, -0.07865, 352.5459, 372.06934)">n</text><text class="cls-16" transform="matrix(-0.04592, -0.99895, 0.99895, -0.04592, 352.13379, 366.90039)">e</text><text class="cls-16" transform="matrix(-0.01478, -0.99989, 0.99989, -0.01478, 351.89648, 361.76953)">y</text><text class="cls-16" transform="translate(351.84082 357.01416) rotate(-89.6531)"> </text><text class="cls-16" transform="matrix(0.03432, -0.99941, 0.99941, 0.03432, 351.81543, 355.35596)">H</text><text class="cls-16" transform="translate(352.05371 348.73389) rotate(-85.58987)">e</text><text class="cls-16" transform="translate(352.49512 343.31348) rotate(-84.10299)">i</text><text class="cls-16" transform="translate(352.63379 341.75244) rotate(-82.66391)">s</text><text class="cls-16" transform="translate(353.26758 336.92383) rotate(-80.89981)">t</text><ellipse class="cls-17" cx="507.5837" cy="200.35333" rx="5.81896" ry="4.94365" transform="translate(-80.68294 256.96267) rotate(-23.80962)"/><path class="cls-18" d="M501.76127,196.98906a1.1617,1.1617,0,0,0,1.62533-.21745s.2816.13485.21417.27566-.69944-.11706-1.67394,2.33035c0,0,1.40742-1.676,1.84577-1.64733,0,0,.992.025.87993.77775,0,0-.12984.33492-1.289,1.10552,0,0,2.08462-.30907,2.15108-1.37487a4.871,4.871,0,0,1,.066-.899,3.68718,3.68718,0,0,1,3.10407,1.6657s-.5023-2.48058-1.98731-2.6582a4.73249,4.73249,0,0,1,3.7464-.65365,4.90667,4.90667,0,0,0-3.91551-.40073s.16535-.75778-.79244-.70531a.40853.40853,0,0,1,.1103.54359.61.61,0,0,1-.44979-.89352s-.35268.08159-.60872.67578c0,0-.31372-.19471-.26446-1.01231a1.20949,1.20949,0,0,0-.63873-.06982,4.20233,4.20233,0,0,1,.33092,1.63079,6.776,6.776,0,0,1-1.023-.01133l.52677.39685a1.65168,1.65168,0,0,0-.88758.79882S502.83936,196.95755,501.76127,196.98906Z" transform="translate(-43 35)"/><path class="cls-19" d="M503.73952,196.38759s.42086-.0396.39206-.436c0,0,.82312,1.26938.518-.08438a6.98636,6.98636,0,0,1-.28556-1.7715c.00629-.11967.24558,1.35274.68,1.541s.1991-.1463.12642-.37723-.13884.14893.36262.42444a1.45048,1.45048,0,0,0,.77843.24095s-.96153-.18938-.84654.66576.20506.46474.20506.46474-.75489-.7189-1.25341-.06059l-.26469.32728S504.47261,196.32711,503.73952,196.38759Z" transform="translate(-43 35)"/><ellipse class="cls-17" cx="597.6281" cy="178.37814" rx="4.94365" ry="5.81896" transform="matrix(0.35568, -0.93461, 0.93461, 0.35568, 175.35042, 708.4807)"/><path class="cls-18" d="M595.84968,171.89307a1.16168,1.16168,0,0,0,1.30919.98741s.10559.29384-.04133.34663-.41538-.57479-2.82853.4817c0,0,2.17909-.20343,2.47081.125,0,0,.68821.71485.07952,1.17168a3.62445,3.62445,0,0,1-1.69394-.11923s1.70035,1.245,2.49657.5334.67872-.59325.67872-.59325a3.68714,3.68714,0,0,1,1.038,3.36636s1.38576-2.11785.454-3.28774a4.73244,4.73244,0,0,1,3.1248,2.16756,4.90667,4.90667,0,0,0-2.5042-3.03658s.65014-.42294-.06817-1.05866a.40854.40854,0,0,1-.30351.46426.61.61,0,0,1,.30786-.95179,1.054,1.054,0,0,0-.908.053s-.08637-.359.52321-.90607c0,0-.19964-.42022-.40538-.49852,0,0-.53308,1.21033-.91053,1.39281a6.77563,6.77563,0,0,1-.71985-.7269l.09592.65251a1.65168,1.65168,0,0,0-1.19284-.05536S596.63885,172.62823,595.84968,171.89307Z" transform="translate(-43 35)"/><path class="cls-19" d="M597.67982,172.85527a.41708.41708,0,0,0,.58532-.0347s-.30638,1.48154.42783.304a6.986,6.986,0,0,1,1.04168-1.46105c.08857-.08072-.77585,1.135-.59907,1.57416s.24445.03583.355-.17955-.20343.0084-.04026.55679a1.4504,1.4504,0,0,0,.38452.71845s-.551-.81042-1.07014-.1212-.18067.47475-.18067.47475-.03192-1.042-.8492-.92389l-.41831.04685S598.24389,173.32739,597.67982,172.85527Z" transform="translate(-43 35)"/><ellipse class="cls-17" cx="752.98838" cy="172.83552" rx="4.94365" ry="5.81896" transform="translate(-27.63742 437.55664) rotate(-30.22566)"/><path class="cls-18" d="M755.68093,166.67361a1.1617,1.1617,0,0,0,.39772,1.59085s-.10254.29491-.25.24364.03817-.70815-2.50281-1.40305c0,0,1.82278,1.21132,1.84327,1.65013,0,0,.086.98855-.67456.96133,0,0-.34733-.0916-1.24263-1.15738,0,0,.54009,2.037,1.60663,1.984a4.866,4.866,0,0,1,.90077-.03486,3.68713,3.68713,0,0,1-1.30839,3.27075s2.40891-.77634,2.41947-2.2719a4.73249,4.73249,0,0,1,1.06821,3.64989,4.90667,4.90667,0,0,0-.03933-3.93577s.77151.07964.61234-.86629a.40854.40854,0,0,1-.52786.17036.61005.61005,0,0,1,.83766-.54683s-.12049-.34135-.73957-.52939c0,0,.15844-.33351.97642-.37592a1.2095,1.2095,0,0,0-.002-.64253s-1.17532.60637-1.58359.51107a6.77624,6.77624,0,0,1-.10306-1.01781l-.33549.56781a1.65165,1.65165,0,0,0-.893-.79274S755.83272,167.74143,755.68093,166.67361Z" transform="translate(-43 35)"/><path class="cls-19" d="M756.4997,168.57226a.41708.41708,0,0,0,.47708.34088s-1.16945.95981.14174.50532a6.9861,6.9861,0,0,1,1.72849-.48173c.11962-.00712-1.31682.39521-1.45532.84789s.16763.1815.389.08347-.16351-.12132-.38126.40778a1.45052,1.45052,0,0,0-.15246.80048s.08075-.97667-.75619-.76684-.43891.25571-.43891.25571.63-.8305-.07985-1.25233l-.35482-.22647S756.64172,169.294,756.4997,168.57226Z" transform="translate(-43 35)"/><ellipse class="cls-17" cx="731.81831" cy="312.25244" rx="4.94365" ry="5.81896" transform="translate(-54.91863 64.56004) rotate(-2.29532)"/><path class="cls-18" d="M737.08345,308.06947a1.1617,1.1617,0,0,0-.39376,1.59183s-.22873.21253-.335.09816.36542-.60778-1.55409-2.41193c0,0,1.04308,1.924.85564,2.3213,0,0-.387.91369-1.04626.53339,0,0-.264-.24362-.55577-1.60461,0,0-.477,2.05273.4902,2.50542a4.87044,4.87044,0,0,1,.81217.39111,3.68717,3.68717,0,0,1-2.688,2.27693s2.492.44241,3.20179-.874a4.73244,4.73244,0,0,1-.76581,3.72508,4.90669,4.90669,0,0,0,1.80876-3.49574s.64433.43174.94678-.47856a.40854.40854,0,0,1-.54617-.09674.61.61,0,0,1,.99622-.09077,1.05406,1.05406,0,0,0-.40546-.81414s.2962-.22045,1.03877.12522c0,0,.308-.34867.29919-.56862a4.20212,4.20212,0,0,1-1.63852-.29021,6.77618,6.77618,0,0,1,.38569-.94753l-.56238.34453a1.65162,1.65162,0,0,0-.41767-1.11869S736.71739,309.084,737.08345,308.06947Z" transform="translate(-43 35)"/><path class="cls-19" d="M736.91753,310.13047a.41708.41708,0,0,0,.26183.52464s-1.4828.30024-.11146.51284a6.98666,6.98666,0,0,1,1.7528.384c.109.04974-1.34855-.26763-1.683.06745s.06308.23888.30458.256-.08764-.18379-.52785.18169a1.45053,1.45053,0,0,0-.50965.63583s.52882-.82508-.30891-1.03172-.50756.02035-.50756.02035.94565-.43866.516-1.14386l-.20741-.36628S736.70494,310.83466,736.91753,310.13047Z" transform="translate(-43 35)"/></g><g id="Layer_2" data-name="Layer 2"><line class="cls-20" x1="431" y1="11.03" x2="431"/><line class="cls-20" x1="315.92" y1="76.35" x2="310.4" y2="68.75"/><line class="cls-20" x1="321.18" y1="636.41" x2="310.4" y2="651.25"/><line class="cls-20" x1="431" y1="720" x2="431" y2="697.97"/><line class="cls-20" x1="733.6" y1="651.25" x2="719.74" y2="632.18"/><line class="cls-20" x1="864.38" y1="471.25" x2="843.07" y2="464.33"/><line class="cls-20" x1="864.38" y1="248.75" x2="846.26" y2="254.64"/></g><g id="Layer_6" data-name="Layer 6" class="cls-21"><circle cx="523" cy="359" r="121.62237"/></g><g id="Layer_3" data-name="Layer 3"><circle class="cls-22" cx="522" cy="360" r="103.23759"/></g><g id="Layer_7" data-name="Layer 7"><text class="cls-23" transform="translate(475.62891 234.48193) rotate(-15.27052)">9</text><text class="cls-23" transform="translate(481.95605 232.74951) rotate(-12.82843)">0</text><text class="cls-23" transform="matrix(0.98547, -0.16982, 0.16982, 0.98547, 488.62402, 231.18945)">%</text><text class="cls-23" transform="translate(563.15378 219.57418) rotate(17.64481)">6</text><text class="cls-23" transform="translate(569.34219 221.53897) rotate(20.0304)">9</text><text class="cls-23" transform="matrix(0.92001, 0.39188, -0.39188, 0.92001, 575.4907, 223.73353)">%</text><text class="cls-23" transform="matrix(0.58712, 0.8095, -0.8095, 0.58712, 714.56187, 219.72731)">4</text><text class="cls-23" transform="translate(718.39506 225.00832) rotate(56.42533)">5</text><text class="cls-23" transform="translate(722.0093 230.3731) rotate(59.45752)">%</text><text class="cls-23" transform="translate(685.70387 359.51921) rotate(89.98327)">7</text><text class="cls-23" transform="translate(685.71361 364.9707) rotate(92.09417)">2</text><text class="cls-23" transform="translate(685.53804 371.09458) rotate(95.04589)">%</text><text class="cls-23" transform="translate(737.46249 513.37682) rotate(129.5167)">6</text><text class="cls-23" transform="matrix(-0.66754, 0.74457, -0.74457, -0.66754, 733.28565, 518.44106)">3</text><text class="cls-23" transform="translate(729.15091 523.12343) rotate(134.86245)">%</text><text class="cls-23" transform="translate(568.38035 482.04253) rotate(159.89243)">4</text><text class="cls-23" transform="translate(562.20041 484.30671) rotate(162.31243)">4</text><text class="cls-23" transform="matrix(-0.96677, 0.25565, -0.25565, -0.96677, 556.39665, 486.21312)">%</text><text class="cls-23" transform="matrix(-0.91873, -0.39489, 0.39489, -0.91873, 454.31345, 558.23186)">9</text><text class="cls-23" transform="matrix(-0.90204, -0.43166, 0.43166, -0.90204, 448.4021, 555.69207)">3</text><text class="cls-23" transform="translate(442.73447 553.03233) rotate(-151.43762)">%</text><text class="cls-23" transform="translate(415.4173 434.77195) rotate(-124.69733)">9</text><text class="cls-23" transform="translate(411.75408 429.48278) rotate(-122.38564)">3</text><text class="cls-23" transform="matrix(-0.49085, -0.87125, 0.87125, -0.49085, 408.3611, 424.22123)">%</text><text class="cls-23" transform="translate(386.06897 363.76117) rotate(-88.15815)">1</text><text class="cls-23" transform="translate(386.16981 359.78487) rotate(-86.17064)">0</text><text class="cls-23" transform="translate(386.62576 352.93161) rotate(-83.60455)">0</text><text class="cls-23" transform="translate(387.35069 346.09213) rotate(-80.42394)">%</text><text class="cls-23" transform="translate(406.37956 278.58829) rotate(-53.96215)">7</text><text class="cls-23" transform="matrix(0.61792, -0.78624, 0.78624, 0.61792, 409.7987, 273.89474)">7</text><text class="cls-23" transform="matrix(0.65633, -0.75447, 0.75447, 0.65633, 413.19557, 269.48795)">%</text><text class="cls-24" transform="matrix(0.92016, -0.39153, 0.39153, 0.92016, 474.31476, 262.16577)">4</text><text class="cls-24" transform="translate(478.11186 260.54728) rotate(-21.50385)">0</text><text class="cls-24" transform="translate(482.27186 258.924) rotate(-20.49417)"> </text><text class="cls-24" transform="translate(483.32838 258.49287) rotate(-19.09864)">m</text><text class="cls-24" transform="matrix(0.95256, -0.30434, 0.30434, 0.95256, 489.58987, 256.36065)">i</text><text class="cls-24" transform="translate(490.5678 256.04733) rotate(-17.34401)">l</text><text class="cls-24" transform="matrix(0.95645, -0.2919, 0.2919, 0.95645, 491.53767, 255.74439)">l</text><text class="cls-24" transform="translate(492.51951 255.4445) rotate(-16.59444)">i</text><text class="cls-24" transform="translate(493.4865 255.14226) rotate(-15.6145)">o</text><text class="cls-24" transform="translate(497.57956 253.99969) rotate(-14.08243)">n</text><text class="cls-24" transform="translate(541.46594 252.20741) rotate(12.11177)">4</text><text class="cls-24" transform="translate(545.48392 253.06778) rotate(13.6422)">8</text><text class="cls-24" transform="matrix(0.96751, 0.25283, -0.25283, 0.96751, 549.75703, 254.11927)"> </text><text class="cls-24" transform="translate(550.84162 254.36766) rotate(16.02891)">m</text><text class="cls-24" transform="translate(557.21131 256.23274) rotate(17.4129)">i</text><text class="cls-24" transform="translate(558.18042 256.53696) rotate(17.78025)">l</text><text class="cls-24" transform="translate(559.15498 256.84909) rotate(18.15352)">l</text><text class="cls-24" transform="translate(560.11721 257.16455) rotate(18.52497)">i</text><text class="cls-24" transform="translate(561.09312 257.47636) rotate(19.50393)">o</text><text class="cls-24" transform="matrix(0.93335, 0.35896, -0.35896, 0.93335, 565.11949, 258.90466)">n</text><text class="cls-24" transform="translate(603.13235 284.82708) rotate(49.80383)">7</text><text class="cls-24" transform="matrix(0.62741, 0.77869, -0.77869, 0.62741, 605.26875, 287.34447)">3</text><text class="cls-24" transform="matrix(0.61402, 0.78929, -0.78929, 0.61402, 607.95488, 290.6978)"> </text><text class="cls-24" transform="matrix(0.59459, 0.80403, -0.80403, 0.59459, 608.68048, 291.57608)">m</text><text class="cls-24" transform="matrix(0.57496, 0.81818, -0.81818, 0.57496, 612.58709, 296.9158)">i</text><text class="cls-24" transform="translate(613.17489 297.75207) rotate(55.27869)">l</text><text class="cls-24" transform="matrix(0.56411, 0.8257, -0.8257, 0.56411, 613.76268, 298.59995)">l</text><text class="cls-24" transform="matrix(0.55868, 0.82938, -0.82938, 0.55868, 614.33737, 299.44156)">i</text><text class="cls-24" transform="translate(614.90996 300.26504) rotate(57.01841)">o</text><text class="cls-24" transform="translate(617.2382 303.85563) rotate(58.57169)">n</text><text class="cls-24" transform="matrix(0.08124, 0.99669, -0.99669, 0.08124, 632.00889, 348.36381)">5</text><text class="cls-24" transform="translate(632.34497 352.5007) rotate(86.80183)">2</text><text class="cls-24" transform="matrix(0.03963, 0.99921, -0.99921, 0.03963, 632.55614, 356.48063)"> </text><text class="cls-24" transform="translate(632.63471 357.61037) rotate(89.12062)">m</text><text class="cls-24" transform="translate(632.70289 364.20971) rotate(90.49658)">i</text><text class="cls-24" transform="translate(632.69401 365.23813) rotate(90.87184)">l</text><text class="cls-24" transform="translate(632.67731 366.27969) rotate(91.25302)">l</text><text class="cls-24" transform="translate(632.65633 367.28395) rotate(91.62246)">i</text><text class="cls-24" transform="matrix(-0.04545, 0.99897, -0.99897, -0.04545, 632.64151, 368.29981)">o</text><text class="cls-24" transform="translate(632.44735 372.55105) rotate(94.13973)">n</text><text class="cls-24" transform="matrix(-0.56426, 0.8256, -0.8256, -0.56426, 619.19589, 413.67641)">8</text><text class="cls-24" transform="matrix(-0.5869, 0.80966, -0.80966, -0.5869, 616.74369, 417.26641)">0</text><text class="cls-24" transform="translate(614.10436 420.88305) rotate(126.95185)"> </text><text class="cls-24" transform="translate(613.4506 421.80886) rotate(128.34347)">m</text><text class="cls-24" transform="matrix(-0.63903, 0.76918, -0.76918, -0.63903, 609.32437, 426.97056)">i</text><text class="cls-24" transform="matrix(-0.64406, 0.76497, -0.76497, -0.64406, 608.66898, 427.76004)">l</text><text class="cls-24" transform="translate(608.01511 428.53683) rotate(130.46612)">l</text><text class="cls-24" transform="matrix(-0.65398, 0.75651, -0.75651, -0.65398, 607.35107, 429.31631)">i</text><text class="cls-24" transform="translate(606.70161 430.08921) rotate(131.82032)">o</text><text class="cls-24" transform="matrix(-0.68654, 0.72709, -0.72709, -0.68654, 603.85548, 433.26754)">n</text><text class="cls-24" transform="translate(567.39671 460.5315) rotate(161.17213)">4</text><text class="cls-24" transform="translate(563.52188 461.8429) rotate(162.30422)">1</text><text class="cls-24" transform="translate(561.3795 462.52421) rotate(162.9159)"> </text><text class="cls-24" transform="translate(560.28648 462.89499) rotate(164.31366)">m</text><text class="cls-24" transform="matrix(-0.96895, 0.24725, -0.24725, -0.96895, 553.92441, 464.6476)">i</text><text class="cls-24" transform="translate(552.92167 464.9037) rotate(166.06114)">l</text><text class="cls-24" transform="matrix(-0.9721, 0.23455, -0.23455, -0.9721, 551.92769, 465.15001)">l</text><text class="cls-24" transform="translate(550.92001 465.39295) rotate(166.81274)">i</text><text class="cls-24" transform="matrix(-0.97734, 0.21169, -0.21169, -0.97734, 549.967, 465.63076)">o</text><text class="cls-24" transform="matrix(-0.98265, 0.18548, -0.18548, -0.98265, 545.7895, 466.53438)">n</text><text class="cls-24" transform="translate(501.92671 468.08587) rotate(-167.23189)">6</text><text class="cls-24" transform="matrix(-0.96899, -0.2471, 0.2471, -0.96899, 497.72908, 467.13378)">4</text><text class="cls-24" transform="translate(493.71265 466.09655) rotate(-164.74213)"> </text><text class="cls-24" transform="translate(492.59656 465.82693) rotate(-163.34619)">m</text><text class="cls-24" transform="translate(486.2799 463.90373) rotate(-161.97703)">i</text><text class="cls-24" transform="translate(485.30439 463.58566) rotate(-161.60489)">l</text><text class="cls-24" transform="translate(484.32164 463.25895) rotate(-161.22626)">l</text><text class="cls-24" transform="translate(483.36848 462.93482) rotate(-160.86059)">i</text><text class="cls-24" transform="translate(482.39585 462.61221) rotate(-159.88324)">o</text><text class="cls-24" transform="translate(478.3883 461.14348) rotate(-158.35813)">n</text><text class="cls-24" transform="translate(441.1834 433.6215) rotate(-129.66436)">4</text><text class="cls-24" transform="translate(438.55741 430.45983) rotate(-128.1248)">0</text><text class="cls-24" transform="translate(435.8053 426.93028) rotate(-127.1117)"> </text><text class="cls-24" transform="matrix(-0.58378, -0.81191, 0.81191, -0.58378, 435.09437, 426.04539)">m</text><text class="cls-24" transform="translate(431.26561 420.66464) rotate(-124.34061)">i</text><text class="cls-24" transform="translate(430.68516 419.81362) rotate(-123.96364)">l</text><text class="cls-24" transform="matrix(-0.55314, -0.83309, 0.83309, -0.55314, 430.10363, 418.95151)">l</text><text class="cls-24" transform="translate(429.54667 418.1114) rotate(-123.21323)">i</text><text class="cls-24" transform="translate(428.97655 417.26689) rotate(-122.23047)">o</text><text class="cls-24" transform="translate(426.70697 413.66524) rotate(-120.69424)">n</text><text class="cls-24" transform="translate(412.30058 374.97677) rotate(-92.53786)">4</text><text class="cls-24" transform="matrix(-0.01773, -0.99984, 0.99984, -0.01773, 412.11415, 370.76181)">4</text><text class="cls-24" transform="translate(412.05308 366.60549) rotate(-90.06112)"> </text><text class="cls-24" transform="translate(412.01793 365.46382) rotate(-88.66467)">m</text><text class="cls-24" transform="matrix(0.04737, -0.99888, 0.99888, 0.04737, 412.20504, 358.85809)">i</text><text class="cls-24" transform="translate(412.25404 357.82617) rotate(-86.90822)">l</text><text class="cls-24" transform="translate(412.30869 356.80808) rotate(-86.53344)">l</text><text class="cls-24" transform="translate(412.37082 355.77996) rotate(-86.15515)">i</text><text class="cls-24" transform="translate(412.42426 354.78185) rotate(-85.17728)">o</text><text class="cls-24" transform="matrix(0.11078, -0.99384, 0.99384, 0.11078, 412.78343, 350.53465)">n</text><text class="cls-24" transform="matrix(0.51408, -0.85774, 0.85774, 0.51408, 426.1515, 307.90864)">4</text><text class="cls-24" transform="matrix(0.53587, -0.8443, 0.8443, 0.53587, 428.23272, 304.4329)">5</text><text class="cls-24" transform="translate(430.47429 300.92351) rotate(-56.64078)"> </text><text class="cls-24" transform="translate(431.06871 299.96018) rotate(-55.24988)">m</text><text class="cls-24" transform="translate(434.86542 294.54477) rotate(-53.87271)">i</text><text class="cls-24" transform="matrix(0.59489, -0.80381, 0.80381, 0.59489, 435.47865, 293.7058)">l</text><text class="cls-24" transform="translate(436.08929 292.88048) rotate(-53.1192)">l</text><text class="cls-24" transform="translate(436.70002 292.0659) rotate(-52.74671)">i</text><text class="cls-24" transform="translate(437.30056 291.25285) rotate(-51.77162)">o</text><text class="cls-24" transform="matrix(0.63955, -0.76875, 0.76875, 0.63955, 439.94006, 287.90381)">n</text><ellipse class="cls-17" cx="791.51277" cy="472.07658" rx="5.81896" ry="4.94365" transform="translate(-170.56577 438.93405) rotate(-26.57255)"/><path class="cls-18" d="M797.4906,475.15627a1.1617,1.1617,0,0,0-1.613.29555s-.28778-.12113-.22721-.265.70427.08321,1.55967-2.40833c0,0-1.325,1.7419-1.76422,1.73439,0,0-.992.02285-.9164-.73444,0,0,.11355-.34079,1.2342-1.16636,0,0-2.0673.4092-2.08231,1.477a4.86628,4.86628,0,0,1-.0226.90115A3.68713,3.68713,0,0,1,790.478,473.476s.62128,2.45349,2.11312,2.55931a4.73245,4.73245,0,0,1-3.71053.83349,4.9067,4.9067,0,0,0,3.93028.21152s-.12864.76486.82552.66629A.40853.40853,0,0,1,793.5,477.209a.61.61,0,0,1,.49234.87079s.34833-.09849.57543-.70433c0,0,.32275.17937.313.99839a1.20946,1.20946,0,0,0,.64135.03894,4.20216,4.20216,0,0,1-.40914-1.61293,6.77466,6.77466,0,0,1,1.02232-.038l-.54529-.371a1.65167,1.65167,0,0,0,.848-.84069S796.41528,475.23971,797.4906,475.15627Z" transform="translate(-43 35)"/><path class="cls-19" d="M795.54364,475.8524a.41709.41709,0,0,0-.37059.45439s-.88334-1.22823-.51331.10925a6.98729,6.98729,0,0,1,.37062,1.75568c-.00052.11983-.31051-1.33933-.75345-1.50639s-.19181.15572-.10809.38288.1315-.15545-.38265-.40646a1.45037,1.45037,0,0,0-.78914-.20315s.96954.14281.81347-.7058-.22723-.45431-.22723-.45431.78867.68167,1.25487.0001l.24861-.33966S794.81432,475.94815,795.54364,475.8524Z" transform="translate(-43 35)"/><ellipse class="cls-17" cx="623.81935" cy="446.97004" rx="5.81896" ry="4.94365" transform="translate(-120.9688 171.44438) rotate(-11.75348)"/><path class="cls-18" d="M628.81066,451.47623a1.16169,1.16169,0,0,0-1.6349-.12682s-.24722-.19071-.15187-.31432.65957.26057,2.12376-1.92932c0,0-1.72645,1.34508-2.14914,1.22547,0,0-.96487-.23164-.69807-.94439,0,0,.19693-.30041,1.49147-.8119,0,0-2.1032-.13316-2.3908.89525a4.86878,4.86878,0,0,1-.25234.8654,3.68715,3.68715,0,0,1-2.68768-2.2773s-.0269,2.53078,1.38825,3.01465a4.7325,4.7325,0,0,1-3.80029-.14327,4.90666,4.90666,0,0,0,3.74545,1.20972s-.32.70652.62764.85527a.40853.40853,0,0,1,.00567-.55464.61.61,0,0,1,.25324.96776s.36194-.00612.73644-.53373c0,0,.26614.256.04718,1.04522,0,0,.39455.24653.61006.20169a4.20219,4.20219,0,0,1,.017-1.66393,6.77557,6.77557,0,0,1,.998.22474l-.43226-.49812a1.65167,1.65167,0,0,0,1.03485-.59582S627.74977,451.28186,628.81066,451.47623Z" transform="translate(-43 35)"/><path class="cls-19" d="M626.75041,451.65124a.41707.41707,0,0,0-.47447.34449s-.53983-1.41331-.52419-.02567a6.98631,6.98631,0,0,1-.09076,1.79207c-.03114.11571.04239-1.3742-.34309-1.649s-.22526.10148-.20242.3425.16688-.11665-.266-.49082a1.45055,1.45055,0,0,0-.71093-.39823s.90077.386.96693-.47426-.10348-.49731-.10348-.49731.58809.86071,1.21311.32105l.32722-.26478S626.02086,451.55726,626.75041,451.65124Z" transform="translate(-43 35)"/><ellipse class="cls-25" cx="507.68516" cy="528.10109" rx="4.94365" ry="5.81896" transform="translate(-243.22968 751.49316) rotate(-61.03149)"/><path class="cls-18" d="M508.5282,534.77254s-.04125-1.18412-1.15632-1.1627c0,0-.063-.30582.09-.3373s.32988.62778,2.86823-.07668c0,0-2.186-.10691-2.42828-.47331,0,0-.58014-.805.08705-1.17115a3.62456,3.62456,0,0,1,1.66.35769s-1.50711-1.473-2.396-.88125-.75582.49126-.75582.49126a3.68717,3.68717,0,0,1-.55127-3.47935s-1.67144,1.90049-.91459,3.19044a4.73248,4.73248,0,0,1-2.78671-2.58785,4.9067,4.9067,0,0,0,2.0494,3.36032s-.70343.32671-.08229,1.05766a.40854.40854,0,0,1,.36614-.41666.61006.61006,0,0,1-.43942.89867,1.054,1.054,0,0,0,.90634.07594s.03472.3676-.64614.82294c0,0,.13819.44423.33078.55085,0,0,.699-1.12273,1.09842-1.25a6.7754,6.7754,0,0,1,.60977.82143l-.00264-.65952a1.65169,1.65169,0,0,0,1.173.22356S507.851,533.93312,508.5282,534.77254Z" transform="translate(-43 35)"/><path class="cls-19" d="M506.8526,533.56109a.41709.41709,0,0,0-.58434-.04846s.5129-1.42329-.38053-.36143a6.9862,6.9862,0,0,1-1.23791,1.299c-.0991.06738.92863-1.01383.81576-1.47358s-.23693-.07-.37686.12752.20258.02047.11863-.54549a1.45038,1.45038,0,0,0-.279-.76562s.43083.88023,1.04222.27138.246-.44441.246-.44441-.11582,1.036.70994,1.03474l.42073.0128S506.361,533.01392,506.8526,533.56109Z" transform="translate(-43 35)"/><ellipse class="cls-17" cx="462.28068" cy="414.83936" rx="4.94365" ry="5.81896" transform="translate(-142.94382 185.83418) rotate(-16.75057)"/><path class="cls-18" d="M458.22638,420.20421a1.16168,1.16168,0,0,0-.01607-1.63972s.16845-.2629.2999-.17868-.20213.67976,2.107,1.94764c0,0-1.49034-1.60273-1.408-2.03423,0,0,.14671-.98138.88-.77768,0,0,.31643.17.93873,1.41508,0,0-.05054-2.1068-1.10009-2.30374a4.8695,4.8695,0,0,1-.88409-.176,3.68712,3.68712,0,0,1,2.03453-2.87583s-2.52351.19364-2.88227,1.64556a4.73246,4.73246,0,0,1-.1883-3.79832,4.90668,4.90668,0,0,0-.87888,3.83658s-.7317-.25722-.79734.69976a.40853.40853,0,0,1,.553-.04267.61006.61006,0,0,1-.942.33658s.03763.36.59586.68715c0,0-.2318.28742-1.03715.13805a1.20958,1.20958,0,0,0-.14778.62531,4.20225,4.20225,0,0,1,1.65909-.128,6.776,6.776,0,0,1-.137,1.01382l.45857-.474a1.65164,1.65164,0,0,0,.6837.979S458.3276,419.13042,458.22638,420.20421Z" transform="translate(-43 35)"/><path class="cls-19" d="M457.87258,418.167a.41709.41709,0,0,0-.38451-.44267s1.36091-.66088-.02009-.52443a6.98623,6.98623,0,0,1-1.79317.06569c-.118-.02095,1.37267-.07748,1.61285-.48542s-.12072-.21557-.35884-.17182.13074.15609.46579-.30771a1.45049,1.45049,0,0,0,.33479-.74292s-.30611.931.55668.92194.48641-.14639.48641-.14639-.80621.66082-.21416,1.23646l.29227.30291S457.90265,417.43208,457.87258,418.167Z" transform="translate(-43 35)"/><ellipse class="cls-17" cx="426.30707" cy="338.94274" rx="4.94365" ry="5.81896" transform="translate(-103.69315 130.11763) rotate(-11.89142)"/><path class="cls-18" d="M421.8129,343.94488a1.16168,1.16168,0,0,0,.12289-1.63519s.19011-.24769.31395-.15264-.259.6602,1.93442,2.11912c0,0-1.34922-1.72321-1.23063-2.14619,0,0,.22931-.96542.9427-.70034,0,0,.30089.19621.81549,1.48951,0,0,.1281-2.10351-.901-2.38864a4.86914,4.86914,0,0,1-.866-.25025,3.68713,3.68713,0,0,1,2.27082-2.69316s-2.53084-.02081-3.0113,1.39551a4.7325,4.7325,0,0,1,.13412-3.80063,4.90667,4.90667,0,0,0-1.2007,3.74835s-.70729-.31828-.85376.6297a.40855.40855,0,0,1,.55466.00433.61006.61006,0,0,1-.96715.25558s.007.36192.5355.73515c0,0-.25531.26675-1.04511.0497,0,0-.24558.39514-.20022.61054a4.20219,4.20219,0,0,1,1.664.013,6.7752,6.7752,0,0,1-.22233.99857l.49707-.43346a1.65167,1.65167,0,0,0,.59832,1.03341S422.00472,342.88353,421.8129,343.94488Z" transform="translate(-43 35)"/><path class="cls-19" d="M421.63294,341.88506a.41708.41708,0,0,0-.34564-.47364s1.412-.54323.02442-.52425a6.98664,6.98664,0,0,1-1.79229-.08644c-.11579-.03087,1.37429.03907,1.64816-.34707s-.102-.225-.343-.20159.11705.1666.49017-.26715a1.45043,1.45043,0,0,0,.39652-.71189s-.38387.9017.47659.96579.49707-.10468.49707-.10468-.8593.59016-.31814,1.21388l.26557.32658S421.72515,341.15529,421.63294,341.88506Z" transform="translate(-43 35)"/><ellipse class="cls-17" cx="441.15387" cy="250.85093" rx="5.81896" ry="4.94365" transform="matrix(0.51565, -0.8568, 0.8568, 0.51565, -44.25586, 534.48029)"/><path class="cls-18" d="M434.4563,251.45216s1.18484.0016,1.20376-1.11352c0,0,.3079-.05185.33383.10209s-.6393.307-.0271,2.86913c0,0,.18589-2.18066.56082-2.40957,0,0,.82548-.55066,1.16723.12934a3.62439,3.62439,0,0,1-.41748,1.646s1.52656-1.45286.96731-2.36257-.4636-.77309-.4636-.77309a3.68714,3.68714,0,0,1,3.497-.42509s-1.8388-1.73907-3.15528-1.02936a4.73251,4.73251,0,0,1,2.68693-2.69131,4.90668,4.90668,0,0,0-3.43223,1.92655s-.30105-.71479-1.054-.12048a.40853.40853,0,0,1,.40314.381.61.61,0,0,1-.88218-.47164,1.054,1.054,0,0,0-.10867.903s-.36862.0214-.799-.67547c0,0-.44895.122-.56246.31064,0,0,1.09672.73909,1.20944,1.1429a6.77553,6.77553,0,0,1-.84295.57967l.65918.02121a1.65168,1.65168,0,0,0-.26583,1.16416S435.31966,250.80573,434.4563,251.45216Z" transform="translate(-43 35)"/><path class="cls-19" d="M435.72755,249.82147a.41709.41709,0,0,0,.06956-.58221s1.40382.564.375-.36721a6.9862,6.9862,0,0,1-1.25336-1.28407c-.06375-.10147.97959.96469,1.44311.86851s.07857-.23424-.1138-.38122-.02778.2017.54084.13828a1.45049,1.45049,0,0,0,.77521-.25114s-.89523.39872-.30889,1.03173.43523.26194.43523.26194-1.03112-.15321-1.05974.67206l-.028.42S436.29214,249.35,435.72755,249.82147Z" transform="translate(-43 35)"/></g><g id="Layer_8" data-name="Layer 8"><text class="cls-26" transform="translate(58.1875 246.08887)">WH<tspan class="cls-27" x="61.13867" y="0">A</tspan><tspan class="cls-28" x="82.25879" y="0">T IS</tspan></text><text class="cls-29" transform="translate(19.60547 330.70264)">PEOPLE</text><text class="cls-26" transform="translate(13.95996 392.40283)"><tspan class="cls-30">W</tspan><tspan class="cls-27" x="33.7793" y="0">A</tspan><tspan x="54.89941" y="0">TCHING ON</tspan></text><path class="cls-31" d="M83.34631,375.0342H70.95874c-.024,16.84428-.04789,27.75453-.07152,44.59875-5.32278-16.43785-10.65114-27.3201-15.99252-44.59875H43V454c4.015-.57134,8.31469-1.11884,12.33438-1.64366.01131-16.50433.02295-26.65027.03426-43.15534,5.53162,16.24563,8.93235,25.82819,14.44762,41.26694,4.32368-.49355,9.07369-1.10154,13.40166-1.54054q.06436-36.94632.12839-73.8932" transform="translate(-43 35)"/><path class="cls-31" d="M129.616,375.0342H95.29952q-.06927,36.42637-.13868,72.85283,17.21852-1.5665,34.47148-2.56027c.00633-3.55073.01266-8.65459.01893-12.20463-7.47825.45964-14.63221.93855-22.08417,1.43939.01294-6.52867.02595-11.92794.03856-18.45729,5.44613-.0938,11.1983-.01131,16.76179-.10647.00668-3.56863.01335-8.69115.02-12.25986-5.51295.09781-11.33562.10912-16.76009.21218.01294-6.52935.02561-10.11066.03855-16.64008,3.41272-.04121,6.75719-.04652,10.09574-.04652q.87948,0,1.75836.00068h1.75013c2.78437,0,5.58011-.00334,8.42374-.028.00634-3.55066-.08412-8.65193-.07778-12.202" transform="translate(-43 35)"/><path class="cls-31" d="M175.87111,375.08876c-12.59614,0-25.61595.00061-38.21175.00129-.006,3.52743-.01165,8.60874-.0173,12.13617q.82218-.006,1.64434-.00531c1.65994,0,3.31988.01594,4.98017.03256,1.65858.016,3.31756.03262,4.97649.03262q.63805,0,1.27618-.00333c-.02561,19.57749-.05122,37.45943-.07649,57.03693,4.04291-.15033,8.36925-.27668,12.41318-.37981.01826-19.47042.03658-37.24528.05456-56.715,4.27144-.01662,8.68422-.02922,12.95566-.03787.00163-3.46756.00326-8.63068.005-12.09823" transform="translate(-43 35)"/><path class="cls-31" d="M218.36793,375.0342H183.91008q-.0049,34.28723-.01,68.57308c1.332-.00531,2.67934-.00729,4.03161-.00729,2.75549,0,5.532.01,8.24522.03127-.00334-9.70027-.006-18.55313-.00865-28.25408q1.01477.004,2.04744.004c1.6017,0,3.23011-.00668,4.86444-.01335,1.635-.00661,3.27663-.01329,4.90367-.01329,1.6769,0,3.33854.00668,4.96286.02929-.00265-3.47756-.006-8.65063-.00926-12.1282-1.53393-.01532-3.10178-.02063-4.68421-.02063-1.69618,0-3.409.006-5.11585.012-1.70421.006-3.40175.012-5.07.012q-.95785,0-1.90243-.00265c-.002-6.23606-.00327-9.75551-.00531-15.99218q2.02054.003,4.03031.00266,2.03841,0,4.06955-.00137,2.04945-.001,4.09815-.00129c3.32921,0,6.6604.00327,10.02088.0186-.00327-3.48554-.00729-8.763-.01062-12.24856" transform="translate(-43 35)"/><path class="cls-31" d="M226.41057,375.08937c.03065,23.07836-.08044,46.15666-.05054,69.23563,11.01664.41046,22.59339.85545,33.59613,1.61574-.00667-3.55-.01334-8.65527-.01995-12.20537-6.96447-.40971-14.2142-.90061-21.18391-1.19064-.03126-19.7644.07779-37.691.04653-57.45468-4.03563-.00068-8.35263-.00068-12.38826-.00068" transform="translate(-43 35)"/><path class="cls-31" d="M270.12267,375.09142q.07092,35.79976.14107,71.60027c4.03624.312,8.21225.64654,12.24522,1.0051q.022-36.27773.00136-72.60476c-4.035-.00061-8.35263-.00061-12.38765-.00061" transform="translate(-43 35)"/><path class="cls-31" d="M293.12986,375.09271c4.95421,12.06764,9.486,24.16989,14.51682,36.98515-5.2283,12.30979-10.5504,24.53839-15.77332,36.34666,4.32626.427,8.80225,1.05161,13.12525,1.53325,3.101-7.605,5.922-13.45922,9.02641-21.26973,3.09906,8.32,5.91613,14.74766,9.00721,23.33576,4.31565.55936,9.91047,1.3629,14.22081,1.9762-5.225-13.96735-10.93948-28.5108-16.19373-41.71125,5.23225-12.39691,10.571-24.23106,16.00545-37.192-4.462,0-9.065-.00068-13.527-.00136-3.35387,8.01076-5.66137,13.15856-8.87614,20.78414-2.99533-7.93421-5.00415-13.06872-8.0041-20.78544-4.462-.00068-9.06565-.00068-13.52767-.00136" transform="translate(-43 35)"/><text class="cls-32" transform="translate(562.38379 668.65137)"><tspan class="cls-33">Re</tspan><tspan class="cls-34" x="8.91016" y="0">f</tspan><tspan x="10.80957" y="0">e</tspan><tspan class="cls-35" x="15.31934" y="0">r</tspan><tspan x="17.46973" y="0">ences:</tspan><tspan x="0" y="12">h</tspan><tspan class="cls-36" x="4.28027" y="12">t</tspan><tspan x="6.64941" y="12">tps:</tspan><tspan class="cls-37" x="18.60938" y="12">/</tspan><tspan class="cls-38" x="20.12988" y="12">/</tspan><tspan class="cls-39" x="22.5498" y="12">ww</tspan><tspan class="cls-40" x="35.48926" y="12">w</tspan><tspan x="41.65918" y="12">.</tspan><tspan class="cls-41" x="42.43945" y="12">r</tspan><tspan class="cls-38" x="44.58887" y="12">o</tspan><tspan class="cls-42" x="49.16895" y="12">t</tspan><tspan class="cls-43" x="51.53906" y="12">t</tspan><tspan class="cls-44" x="53.55859" y="12">en</tspan><tspan class="cls-33" x="62.34863" y="12">t</tspan><tspan x="64.36914" y="12">oma</tspan><tspan class="cls-33" x="80.82813" y="12">t</tspan><tspan x="82.84863" y="12">oes</tspan><tspan class="cls-40" x="96.22852" y="12">.</tspan><tspan x="96.80859" y="12">co</tspan><tspan class="cls-40" x="105.91797" y="12">m</tspan><tspan class="cls-45" x="113.01758" y="12">/</tspan><tspan class="cls-39" x="115.43848" y="12">t</tspan><tspan class="cls-46" x="117.8584" y="12">v</tspan><tspan x="121.4082" y="12">/</tspan><tspan x="0" y="24">h</tspan><tspan class="cls-36" x="4.28027" y="24">t</tspan><tspan x="6.64941" y="24">tps:</tspan><tspan class="cls-37" x="18.60938" y="24">/</tspan><tspan class="cls-38" x="20.12988" y="24">/</tspan><tspan class="cls-39" x="22.5498" y="24">ww</tspan><tspan class="cls-40" x="35.48926" y="24">w</tspan><tspan x="41.65918" y="24">.</tspan><tspan class="cls-47" x="42.43945" y="24">n</tspan><tspan class="cls-39" x="46.56934" y="24">y</tspan><tspan x="50.58887" y="24">times</tspan><tspan class="cls-40" x="69.91895" y="24">.</tspan><tspan x="70.49902" y="24">co</tspan><tspan class="cls-48" x="79.6084" y="24">m</tspan><tspan x="86.70898" y="24">/2</tspan><tspan class="cls-49" x="93.53906" y="24">0</tspan><tspan x="98.28809" y="24">19/10/1</tspan><tspan class="cls-34" x="119.95801" y="24">7</tspan><tspan class="cls-44" x="123.20801" y="24">/busines</tspan><tspan class="cls-48" x="152.66797" y="24">s/</tspan><tspan x="158.97852" y="24">media</tspan><tspan class="cls-48" x="180.75781" y="24">/</tspan><tspan x="183.07813" y="24">n</tspan><tspan class="cls-49" x="187.3584" y="24">e</tspan><tspan class="cls-42" x="191.76758" y="24">t</tspan><tspan class="cls-44" x="194.1377" y="24">fli</tspan><tspan class="cls-50" x="198.55762" y="24">x</tspan><tspan class="cls-40" x="202.00781" y="24">-</tspan><tspan class="cls-43" x="203.45801" y="24">t</tspan><tspan x="205.47754" y="24">o</tspan><tspan class="cls-39" x="210.15723" y="24">p</tspan><tspan class="cls-40" x="214.74707" y="24">-</tspan><tspan class="cls-33" x="216.19727" y="24">t</tspan><tspan x="218.21777" y="24">en-m</tspan><tspan class="cls-40" x="235.95703" y="24">o</tspan><tspan x="240.43652" y="24">vie</tspan><tspan class="cls-51" x="250.10645" y="24">s</tspan><tspan class="cls-52" x="253.99707" y="24">-</tspan><tspan class="cls-39" x="255.44629" y="24">t</tspan><tspan class="cls-33" x="257.86621" y="24">v</tspan><tspan class="cls-49" x="261.7168" y="24">-</tspan><tspan x="263.2666" y="24">sh</tspan><tspan class="cls-53" x="271.73633" y="24">o</tspan><tspan class="cls-54" x="276.2666" y="24">w</tspan><tspan class="cls-44" x="282.58594" y="24">s.html</tspan></text></g><g id="Layer_9" data-name="Layer 9"><line class="cls-55" x1="347" y1="231" x2="347" y2="230"/><line class="cls-56" x1="347" y1="228.02531" x2="347" y2="74.98734"/><polyline class="cls-55" points="347 74 347 73 348 73"/><line class="cls-57" x1="350" y1="73" x2="409" y2="73"/><line class="cls-55" x1="410" y1="73" x2="411" y2="73"/><text class="cls-58" transform="translate(415.82031 75.75195)">m<tspan class="cls-59" x="7.60938" y="0">o</tspan><tspan x="12.41016" y="0">vi</tspan><tspan class="cls-60" x="18.50977" y="0">e</tspan><tspan x="23.42969" y="0">s</tspan></text><line class="cls-61" x1="875" y1="340" x2="875" y2="339"/><line class="cls-62" x1="875" y1="337.02533" x2="875" y2="183.98734"/><polyline class="cls-61" points="875 183 875 182 874 182"/><line class="cls-63" x1="872" y1="182" x2="813" y2="182"/><line class="cls-61" x1="812" y1="182" x2="811" y2="182"/><text class="cls-64" transform="translate(862.82031 352.75195)">seri<tspan class="cls-60" x="14.2998" y="0">e</tspan><tspan x="19.21973" y="0">s</tspan></text></g></svg>