<svg id="Layer_1" data-name="Layer 1" xmlns="http://www.w3.org/2000/svg" viewBox="0 0 432 115.9316"><defs><style>.cls-1{fill:#ed2517;}</style></defs><title>netflix_2014</title><path class="cls-1" d="M128.2334,227.0342H110.0469c-.0352,24.7295-.0703,40.7471-.105,65.4765-7.8145-24.1328-15.6372-40.1093-23.479-65.4765H69V342.9658c5.8945-.8388,12.207-1.6426,18.1084-2.4131.0166-24.2304.0337-39.1259.0503-63.3574,8.1211,23.8506,13.1138,37.919,21.2109,60.585,6.3477-.7246,13.3213-1.6172,19.6753-2.2617q.0945-54.2418.1885-108.4844" transform="translate(-69 -227.0342)"/><path class="cls-1" d="M196.1631,227.0342H145.7822q-.1017,53.47845-.2036,106.957,25.2789-2.2998,50.6084-3.7588c.0093-5.2129.0186-12.706.0278-17.9179-10.979.6748-21.4819,1.3779-32.4223,2.1132.019-9.5849.0381-17.5117.0566-27.0976,7.9956-.1377,16.4405-.0166,24.6084-.1563.0098-5.2392.0196-12.7597.0293-17.999-8.0937.1436-16.6421.1602-24.6059.3115.019-9.5859.0376-14.8437.0566-24.4297,5.0103-.0605,9.9204-.0683,14.8218-.0683q1.2912,0,2.5815.001h2.5694c4.0878,0,8.1923-.0049,12.3671-.0411.0093-5.2128-.1235-12.7021-.1142-17.914" transform="translate(-69 -227.0342)"/><path class="cls-1" d="M264.07129,227.1143c-18.4927,0-37.6074.0009-56.0996.0019-.0088,5.1787-.0171,12.6387-.0254,17.8174q1.20707-.00885,2.4141-.0078c2.437,0,4.874.0234,7.3115.0478,2.435.0235,4.8706.0479,7.30611.0479q.93673,0,1.87359-.0049c-.03759,28.7422-.0752,54.9951-.1123,83.7373,5.9355-.2207,12.2871-.4062,18.2241-.5576.0268-28.585.0537-54.6807.0801-83.2647,6.271-.0244,12.74951-.0429,19.02051-.0556.00239-5.0908.00479-12.6709.00729-17.7617" transform="translate(-69 -227.0342)"/><path class="cls-1" d="M326.46189,227.0342h-50.5884q-.0072,50.3379-.0146,100.6738c1.9556-.0078,3.9336-.0107,5.9189-.0107,4.0454,0,8.1216.0146,12.105.0459-.0049-14.2412-.00879-27.2383-.0127-41.4805q1.4898.00585,3.00591.0059c2.35149,0,4.74219-.0098,7.14159-.0196,2.40041-.0097,4.8105-.0195,7.1992-.0195,2.4619,0,4.9014.0098,7.2861.043-.00389-5.1055-.0088-12.7002-.0136-17.8057-2.252-.0225-4.5538-.0303-6.877-.0303-2.4902,0-5.0049.0088-7.5107.0176-2.502.0088-4.9942.0176-7.4434.0176q-1.40625,0-2.793-.0039c-.0029-9.1553-.0048-14.3223-.0078-23.4785q2.96641.00435,5.917.0039,2.99265,0,5.97461-.002,3.00883-.0015,6.01659-.0019c4.8877,0,9.7783.0048,14.7119.0273-.0048-5.1172-.0107-12.8652-.0156-17.9824" transform="translate(-69 -227.0342)"/><path class="cls-1" d="M338.26949,227.1152c.045,33.8819-.1181,67.7637-.0742,101.6465,16.1738.6026,33.1699,1.2559,49.3233,2.3721-.0098-5.2119-.01959-12.707-.0293-17.919-10.2247-.6015-20.8682-1.3222-31.1006-1.748-.0459-29.0166.1142-55.335.06831-84.3506-5.92481-.001-12.26271-.001-18.18751-.001" transform="translate(-69 -227.0342)"/><path class="cls-1" d="M402.44429,227.1182q.1041,52.5585.2071,105.1181c5.9257.458,12.05661.9492,17.9775,1.4756q.03225-53.2602.002-106.5928c-5.92389-.0009-12.2627-.0009-18.1866-.0009" transform="translate(-69 -227.0342)"/><path class="cls-1" d="M436.22169,227.1201c7.2734,17.7168,13.9267,35.4844,21.3125,54.2988-7.6758,18.0723-15.4893,36.0254-23.15719,53.3614,6.35149.6269,12.92279,1.5439,19.26949,2.251,4.5527-11.1651,8.6943-19.7598,13.2519-31.2266,4.5498,12.2148,8.68561,21.6514,13.2237,34.2598,6.33591.8212,14.5498,2.0009,20.87791,2.9013-7.67091-20.5058-16.06051-41.8574-23.77441-61.2373,7.6816-18.2002,15.5195-35.5742,23.498-54.6025-6.5507,0-13.30859-.001-19.8593-.002-4.9239,11.7608-8.3116,19.3184-13.03129,30.5137-4.39751-11.6484-7.34671-19.1865-11.751-30.5156-6.55071-.001-13.30951-.001-19.86031-.002" transform="translate(-69 -227.0342)"/></svg>